<svg width="18" height="17" viewBox="0 0 18 17" fill="none" xmlns="http://www.w3.org/2000/svg">
<path d="M3.85725 5.66669H2.57153V7.55558H3.85725V5.66669Z" fill="#9A492C"/>
<path d="M5.14289 5.66669H3.85718V7.55558H5.14289V5.66669Z" fill="#9A492C"/>
<path d="M6.42854 5.66669H5.14282V7.55558H6.42854V5.66669Z" fill="#9A492C"/>
<path d="M7.71418 5.66669H6.42847V7.55558H7.71418V5.66669Z" fill="#FDDA4C"/>
<path d="M9.00007 5.66669H7.71436V7.55558H9.00007V5.66669Z" fill="#FDDA4C"/>
<path d="M10.2857 5.66669H9V7.55558H10.2857V5.66669Z" fill="#FDDA4C"/>
<path d="M11.5714 5.66669H10.2856V7.55558H11.5714V5.66669Z" fill="#FDDA4C"/>
<path d="M12.8572 5.66669H11.5715V7.55558H12.8572V5.66669Z" fill="#803923"/>
<path d="M14.1429 5.66669H12.8572V7.55558H14.1429V5.66669Z" fill="#9A492C"/>
<path d="M15.4285 5.66669H14.1428V7.55558H15.4285V5.66669Z" fill="#9A492C"/>
<path d="M16.7142 5.66669H15.4285V7.55558H16.7142V5.66669Z" fill="#9A492C"/>
<path d="M18.0001 5.66669H16.7144V7.55558H18.0001V5.66669Z" fill="#FFC63D"/>
<path d="M3.85725 7.55554H2.57153V9.44443H3.85725V7.55554Z" fill="#FFC63D"/>
<path d="M5.14289 7.55554H3.85718V9.44443H5.14289V7.55554Z" fill="#FFC63D"/>
<path d="M6.42854 7.55554H5.14282V9.44443H6.42854V7.55554Z" fill="#FFC63D"/>
<path d="M7.71418 7.55554H6.42847V9.44443H7.71418V7.55554Z" fill="#FDDA4C"/>
<path d="M9.00007 7.55554H7.71436V9.44443H9.00007V7.55554Z" fill="#513B28"/>
<path d="M10.2857 7.55554H9V9.44443H10.2857V7.55554Z" fill="#513B28"/>
<path d="M11.5714 7.55554H10.2856V9.44443H11.5714V7.55554Z" fill="#FDDA4C"/>
<path d="M12.8572 7.55554H11.5715V9.44443H12.8572V7.55554Z" fill="#FFC63D"/>
<path d="M14.1429 7.55554H12.8572V9.44443H14.1429V7.55554Z" fill="#FFC63D"/>
<path d="M15.4285 7.55554H14.1428V9.44443H15.4285V7.55554Z" fill="#FFC63D"/>
<path d="M16.7142 7.55554H15.4285V9.44443H16.7142V7.55554Z" fill="#FFC63D"/>
<path d="M18.0001 7.55554H16.7144V9.44443H18.0001V7.55554Z" fill="#FFC63D"/>
<path d="M3.85725 9.44446H2.57153V11.3333H3.85725V9.44446Z" fill="#803923"/>
<path d="M5.14289 9.44446H3.85718V11.3333H5.14289V9.44446Z" fill="#803923"/>
<path d="M6.42854 9.44446H5.14282V11.3333H6.42854V9.44446Z" fill="#803923"/>
<path d="M7.71418 9.44446H6.42847V11.3333H7.71418V9.44446Z" fill="#FDDA4C"/>
<path d="M9.00007 9.44446H7.71436V11.3333H9.00007V9.44446Z" fill="#FDDA4C"/>
<path d="M10.2857 9.44446H9V11.3333H10.2857V9.44446Z" fill="#FDDA4C"/>
<path d="M11.5714 9.44446H10.2856V11.3333H11.5714V9.44446Z" fill="#FDDA4C"/>
<path d="M12.8572 9.44446H11.5715V11.3333H12.8572V9.44446Z" fill="#803923"/>
<path d="M14.1429 9.44446H12.8572V11.3333H14.1429V9.44446Z" fill="#803923"/>
<path d="M15.4285 9.44446H14.1428V11.3333H15.4285V9.44446Z" fill="#803923"/>
<path d="M16.7142 9.44446H15.4285V11.3333H16.7142V9.44446Z" fill="#803923"/>
<path d="M18.0001 9.44446H16.7144V11.3333H18.0001V9.44446Z" fill="#F8B11C"/>
<path d="M3.85725 0H2.57153V1.88889H3.85725V0Z" fill="#803923"/>
<path d="M5.14289 0H3.85718V1.88889H5.14289V0Z" fill="#803923"/>
<path d="M6.42854 0H5.14282V1.88889H6.42854V0Z" fill="#803923"/>
<path d="M7.71418 0H6.42847V1.88889H7.71418V0Z" fill="#803923"/>
<path d="M9.00007 0H7.71436V1.88889H9.00007V0Z" fill="#FDDA4C"/>
<path d="M10.2857 0H9V1.88889H10.2857V0Z" fill="#FDDA4C"/>
<path d="M11.5714 0H10.2856V1.88889H11.5714V0Z" fill="#803923"/>
<path d="M12.8572 0H11.5715V1.88889H12.8572V0Z" fill="#803923"/>
<path d="M14.1429 0H12.8572V1.88889H14.1429V0Z" fill="#803923"/>
<path d="M15.4285 0H14.1428V1.88889H15.4285V0Z" fill="#803923"/>
<path d="M16.7142 0H15.4285V1.88889H16.7142V0Z" fill="#803923"/>
<path d="M18.0001 0H16.7144V1.88889H18.0001V0Z" fill="#FDDA4C"/>
<path d="M3.85725 1.88892H2.57153V3.7778H3.85725V1.88892Z" fill="#9A492C"/>
<path d="M5.14289 1.88892H3.85718V3.7778H5.14289V1.88892Z" fill="#9A492C"/>
<path d="M6.42854 1.88892H5.14282V3.7778H6.42854V1.88892Z" fill="#9A492C"/>
<path d="M7.71418 1.88892H6.42847V3.7778H7.71418V1.88892Z" fill="#9A492C"/>
<path d="M9.00007 1.88892H7.71436V3.7778H9.00007V1.88892Z" fill="#FFC63D"/>
<path d="M10.2857 1.88892H9V3.7778H10.2857V1.88892Z" fill="#FFC63D"/>
<path d="M11.5714 1.88892H10.2856V3.7778H11.5714V1.88892Z" fill="#803923"/>
<path d="M12.8572 1.88892H11.5715V3.7778H12.8572V1.88892Z" fill="#9A492C"/>
<path d="M14.1429 1.88892H12.8572V3.7778H14.1429V1.88892Z" fill="#9A492C"/>
<path d="M15.4285 1.88892H14.1428V3.7778H15.4285V1.88892Z" fill="#9A492C"/>
<path d="M16.7142 1.88892H15.4285V3.7778H16.7142V1.88892Z" fill="#9A492C"/>
<path d="M18.0001 1.88892H16.7144V3.7778H18.0001V1.88892Z" fill="#FDDA4C"/>
<path d="M3.85725 3.77777H2.57153V5.66666H3.85725V3.77777Z" fill="#9A492C"/>
<path d="M5.14289 3.77777H3.85718V5.66666H5.14289V3.77777Z" fill="#9A492C"/>
<path d="M6.42854 3.77777H5.14282V5.66666H6.42854V3.77777Z" fill="#9A492C"/>
<path d="M7.71418 3.77777H6.42847V5.66666H7.71418V3.77777Z" fill="#9A492C"/>
<path d="M9.00007 3.77777H7.71436V5.66666H9.00007V3.77777Z" fill="#FFC63D"/>
<path d="M10.2857 3.77777H9V5.66666H10.2857V3.77777Z" fill="#FFC63D"/>
<path d="M11.5714 3.77777H10.2856V5.66666H11.5714V3.77777Z" fill="#803923"/>
<path d="M12.8572 3.77777H11.5715V5.66666H12.8572V3.77777Z" fill="#9A492C"/>
<path d="M14.1429 3.77777H12.8572V5.66666H14.1429V3.77777Z" fill="#9A492C"/>
<path d="M15.4285 3.77777H14.1428V5.66666H15.4285V3.77777Z" fill="#9A492C"/>
<path d="M16.7142 3.77777H15.4285V5.66666H16.7142V3.77777Z" fill="#9A492C"/>
<path d="M18.0001 3.77777H16.7144V5.66666H18.0001V3.77777Z" fill="#FDDA4C"/>
<path d="M3.85725 11.3333H2.57153V13.2222H3.85725V11.3333Z" fill="#9A492C"/>
<path d="M5.14289 11.3333H3.85718V13.2222H5.14289V11.3333Z" fill="#9A492C"/>
<path d="M6.42854 11.3333H5.14282V13.2222H6.42854V11.3333Z" fill="#9A492C"/>
<path d="M7.71418 11.3333H6.42847V13.2222H7.71418V11.3333Z" fill="#803923"/>
<path d="M9.00007 11.3333H7.71436V13.2222H9.00007V11.3333Z" fill="#803923"/>
<path d="M10.2857 11.3333H9V13.2222H10.2857V11.3333Z" fill="#803923"/>
<path d="M11.5714 11.3333H10.2856V13.2222H11.5714V11.3333Z" fill="#803923"/>
<path d="M12.8572 11.3333H11.5715V13.2222H12.8572V11.3333Z" fill="#9A492C"/>
<path d="M14.1429 11.3333H12.8572V13.2222H14.1429V11.3333Z" fill="#9A492C"/>
<path d="M15.4285 11.3333H14.1428V13.2222H15.4285V11.3333Z" fill="#9A492C"/>
<path d="M16.7142 11.3333H15.4285V13.2222H16.7142V11.3333Z" fill="#9A492C"/>
<path d="M18.0001 11.3333H16.7144V13.2222H18.0001V11.3333Z" fill="#F8B11C"/>
<path d="M3.85725 13.2222H2.57153V15.1111H3.85725V13.2222Z" fill="#9A492C"/>
<path d="M5.14289 13.2222H3.85718V15.1111H5.14289V13.2222Z" fill="#9A492C"/>
<path d="M6.42854 13.2222H5.14282V15.1111H6.42854V13.2222Z" fill="#9A492C"/>
<path d="M7.71418 13.2222H6.42847V15.1111H7.71418V13.2222Z" fill="#9A492C"/>
<path d="M9.00007 13.2222H7.71436V15.1111H9.00007V13.2222Z" fill="#9A492C"/>
<path d="M10.2857 13.2222H9V15.1111H10.2857V13.2222Z" fill="#9A492C"/>
<path d="M11.5714 13.2222H10.2856V15.1111H11.5714V13.2222Z" fill="#9A492C"/>
<path d="M12.8572 13.2222H11.5715V15.1111H12.8572V13.2222Z" fill="#9A492C"/>
<path d="M14.1429 13.2222H12.8572V15.1111H14.1429V13.2222Z" fill="#9A492C"/>
<path d="M15.4285 13.2222H14.1428V15.1111H15.4285V13.2222Z" fill="#9A492C"/>
<path d="M16.7142 13.2222H15.4285V15.1111H16.7142V13.2222Z" fill="#9A492C"/>
<path d="M18.0001 13.2222H16.7144V15.1111H18.0001V13.2222Z" fill="#F8B11C"/>
<path d="M3.85725 15.1111H2.57153V17H3.85725V15.1111Z" fill="#F8B11C"/>
<path d="M5.14289 15.1111H3.85718V17H5.14289V15.1111Z" fill="#F8B11C"/>
<path d="M6.42854 15.1111H5.14282V17H6.42854V15.1111Z" fill="#F8B11C"/>
<path d="M2.57136 5.66669H1.28564V7.55558H2.57136V5.66669Z" fill="#803923"/>
<path d="M2.57136 7.55554H1.28564V9.44443H2.57136V7.55554Z" fill="#FFC63D"/>
<path d="M2.57136 9.44446H1.28564V11.3333H2.57136V9.44446Z" fill="#803923"/>
<path d="M2.57136 0H1.28564V1.88889H2.57136V0Z" fill="#803923"/>
<path d="M2.57136 1.88892H1.28564V3.7778H2.57136V1.88892Z" fill="#803923"/>
<path d="M2.57136 3.77777H1.28564V5.66666H2.57136V3.77777Z" fill="#803923"/>
<path d="M2.57136 11.3333H1.28564V13.2222H2.57136V11.3333Z" fill="#803923"/>
<path d="M2.57136 13.2222H1.28564V15.1111H2.57136V13.2222Z" fill="#803923"/>
<path d="M2.57136 15.1111H1.28564V17H2.57136V15.1111Z" fill="#F8B11C"/>
<path d="M1.28571 5.66669H0V7.55558H1.28571V5.66669Z" fill="#FFC63D"/>
<path d="M1.28571 7.55554H0V9.44443H1.28571V7.55554Z" fill="#FFC63D"/>
<path d="M1.28571 9.44446H0V11.3333H1.28571V9.44446Z" fill="#F8B11C"/>
<path d="M1.28571 0H0V1.88889H1.28571V0Z" fill="#FDDA4C"/>
<path d="M1.28571 1.88892H0V3.7778H1.28571V1.88892Z" fill="#FDDA4C"/>
<path d="M1.28571 3.77777H0V5.66666H1.28571V3.77777Z" fill="#FDDA4C"/>
<path d="M1.28571 11.3333H0V13.2222H1.28571V11.3333Z" fill="#F8B11C"/>
<path d="M1.28571 13.2222H0V15.1111H1.28571V13.2222Z" fill="#F8B11C"/>
<path d="M1.28571 15.1111H0V17H1.28571V15.1111Z" fill="#F8B11C"/>
<path d="M7.71418 15.1111H6.42847V17H7.71418V15.1111Z" fill="#F8B11C"/>
<path d="M9.00007 15.1111H7.71436V17H9.00007V15.1111Z" fill="#F8B11C"/>
<path d="M10.2857 15.1111H9V17H10.2857V15.1111Z" fill="#F8B11C"/>
<path d="M11.5714 15.1111H10.2856V17H11.5714V15.1111Z" fill="#F8B11C"/>
<path d="M12.8572 15.1111H11.5715V17H12.8572V15.1111Z" fill="#F8B11C"/>
<path d="M14.1429 15.1111H12.8572V17H14.1429V15.1111Z" fill="#F8B11C"/>
<path d="M15.4285 15.1111H14.1428V17H15.4285V15.1111Z" fill="#F8B11C"/>
<path d="M16.7142 15.1111H15.4285V17H16.7142V15.1111Z" fill="#F8B11C"/>
<path d="M18.0001 15.1111H16.7144V17H18.0001V15.1111Z" fill="#F8B11C"/>
</svg>
