<svg width="22" height="19" viewBox="0 0 22 19" fill="none" xmlns="http://www.w3.org/2000/svg">
<path d="M5.96089 4.10004H3.97388V5.90004H5.96089V4.10004Z" fill="#E32B29"/>
<path d="M7.94819 4.10004H5.96118V5.90004H7.94819V4.10004Z" fill="#E32B29"/>
<path d="M5.96089 5.89996H3.97388V7.69996H5.96089V5.89996Z" fill="#F6DCDD"/>
<path d="M7.94819 5.89996H5.96118V7.69996H7.94819V5.89996Z" fill="#E32B29"/>
<path d="M5.96089 7.69995H3.97388V9.49995H5.96089V7.69995Z" fill="#F6DCDD"/>
<path d="M7.94819 7.69995H5.96118V9.49995H7.94819V7.69995Z" fill="#E32B29"/>
<path d="M5.96089 9.5H3.97388V11.3H5.96089V9.5Z" fill="#E32B29"/>
<path d="M7.94819 9.5H5.96118V11.3H7.94819V9.5Z" fill="#F6DCDD"/>
<path d="M5.96089 11.3H3.97388V13.1H5.96089V11.3Z" fill="#CC2528"/>
<path d="M7.94819 11.3H5.96118V13.1H7.94819V11.3Z" fill="#E32B29"/>
<path d="M7.94819 13.1H5.96118V14.9H7.94819V13.1Z" fill="#CC2528"/>
<path d="M1.98701 4.10004H0V5.90004H1.98701V4.10004Z" fill="#EE4041"/>
<path d="M3.97383 4.10004H1.98682V5.90004H3.97383V4.10004Z" fill="#E32B29"/>
<path d="M5.96089 2.30005H3.97388V4.10005H5.96089V2.30005Z" fill="#E32B29"/>
<path d="M7.94819 2.30005H5.96118V4.10005H7.94819V2.30005Z" fill="#E32B29"/>
<path d="M5.96089 0.5H3.97388V2.3H5.96089V0.5Z" fill="#EE4041"/>
<path d="M7.94819 0.5H5.96118V2.3H7.94819V0.5Z" fill="#EE4041"/>
<path d="M3.97383 2.30005H1.98682V4.10005H3.97383V2.30005Z" fill="#EE4041"/>
<path d="M1.98701 5.89996H0V7.69996H1.98701V5.89996Z" fill="#EE4041"/>
<path d="M3.97383 5.89996H1.98682V7.69996H3.97383V5.89996Z" fill="#E32B29"/>
<path d="M1.98701 7.69995H0V9.49995H1.98701V7.69995Z" fill="#EE4041"/>
<path d="M3.97383 7.69995H1.98682V9.49995H3.97383V7.69995Z" fill="#E32B29"/>
<path d="M3.97383 9.5H1.98682V11.3H3.97383V9.5Z" fill="#CC2528"/>
<path d="M9.93501 4.10004H7.948V5.90004H9.93501V4.10004Z" fill="#E32B29"/>
<path d="M9.93501 5.89996H7.948V7.69996H9.93501V5.89996Z" fill="#E32B29"/>
<path d="M9.93501 7.69995H7.948V9.49995H9.93501V7.69995Z" fill="#E32B29"/>
<path d="M9.93501 9.5H7.948V11.3H9.93501V9.5Z" fill="#E32B29"/>
<path d="M9.93501 11.3H7.948V13.1H9.93501V11.3Z" fill="#F6DCDD"/>
<path d="M9.93501 13.1H7.948V14.9H9.93501V13.1Z" fill="#E32B29"/>
<path d="M9.93501 2.30005H7.948V4.10005H9.93501V2.30005Z" fill="#E32B29"/>
<path d="M9.93501 14.9H7.948V16.7H9.93501V14.9Z" fill="#CC2528"/>
<path d="M11.9221 16.7H9.93506V18.5H11.9221V16.7Z" fill="#CC2528"/>
<path d="M11.9221 4.10004H9.93506V5.90004H11.9221V4.10004Z" fill="#E32B29"/>
<path d="M11.9221 5.89996H9.93506V7.69996H11.9221V5.89996Z" fill="#E32B29"/>
<path d="M11.9221 7.69995H9.93506V9.49995H11.9221V7.69995Z" fill="#E32B29"/>
<path d="M11.9221 9.5H9.93506V11.3H11.9221V9.5Z" fill="#E32B29"/>
<path d="M11.9221 11.3H9.93506V13.1H11.9221V11.3Z" fill="#E32B29"/>
<path d="M11.9221 13.1H9.93506V14.9H11.9221V13.1Z" fill="#E32B29"/>
<path d="M11.9221 14.9H9.93506V16.7H11.9221V14.9Z" fill="#E32B29"/>
<path d="M17.8828 4.10004H15.8958V5.90004H17.8828V4.10004Z" fill="#E32B29"/>
<path d="M15.8959 4.10004H13.9089V5.90004H15.8959V4.10004Z" fill="#E32B29"/>
<path d="M17.8828 5.89996H15.8958V7.69996H17.8828V5.89996Z" fill="#E32B29"/>
<path d="M15.8959 5.89996H13.9089V7.69996H15.8959V5.89996Z" fill="#E32B29"/>
<path d="M17.8828 7.69995H15.8958V9.49995H17.8828V7.69995Z" fill="#E32B29"/>
<path d="M15.8959 7.69995H13.9089V9.49995H15.8959V7.69995Z" fill="#E32B29"/>
<path d="M17.8828 9.5H15.8958V11.3H17.8828V9.5Z" fill="#E32B29"/>
<path d="M15.8959 9.5H13.9089V11.3H15.8959V9.5Z" fill="#E32B29"/>
<path d="M17.8828 11.3H15.8958V13.1H17.8828V11.3Z" fill="#CC2528"/>
<path d="M15.8959 11.3H13.9089V13.1H15.8959V11.3Z" fill="#E32B29"/>
<path d="M15.8959 13.1H13.9089V14.9H15.8959V13.1Z" fill="#CC2528"/>
<path d="M21.8571 4.10004H19.8701V5.90004H21.8571V4.10004Z" fill="#CC2528"/>
<path d="M19.8701 4.10004H17.8831V5.90004H19.8701V4.10004Z" fill="#E32B29"/>
<path d="M17.8828 2.30005H15.8958V4.10005H17.8828V2.30005Z" fill="#E32B29"/>
<path d="M15.8959 2.30005H13.9089V4.10005H15.8959V2.30005Z" fill="#E32B29"/>
<path d="M17.8828 0.5H15.8958V2.3H17.8828V0.5Z" fill="#EE4041"/>
<path d="M15.8959 0.5H13.9089V2.3H15.8959V0.5Z" fill="#EE4041"/>
<path d="M19.8701 2.30005H17.8831V4.10005H19.8701V2.30005Z" fill="#EE4041"/>
<path d="M21.8571 5.89996H19.8701V7.69996H21.8571V5.89996Z" fill="#CC2528"/>
<path d="M19.8701 5.89996H17.8831V7.69996H19.8701V5.89996Z" fill="#E32B29"/>
<path d="M21.8571 7.69995H19.8701V9.49995H21.8571V7.69995Z" fill="#CC2528"/>
<path d="M19.8701 7.69995H17.8831V9.49995H19.8701V7.69995Z" fill="#E32B29"/>
<path d="M19.8701 9.5H17.8831V11.3H19.8701V9.5Z" fill="#CC2528"/>
<path d="M13.9089 4.10004H11.9219V5.90004H13.9089V4.10004Z" fill="#E32B29"/>
<path d="M13.9089 5.89996H11.9219V7.69996H13.9089V5.89996Z" fill="#E32B29"/>
<path d="M13.9089 7.69995H11.9219V9.49995H13.9089V7.69995Z" fill="#E32B29"/>
<path d="M13.9089 9.5H11.9219V11.3H13.9089V9.5Z" fill="#E32B29"/>
<path d="M13.9089 11.3H11.9219V13.1H13.9089V11.3Z" fill="#E32B29"/>
<path d="M13.9089 13.1H11.9219V14.9H13.9089V13.1Z" fill="#E32B29"/>
<path d="M13.9089 2.30005H11.9219V4.10005H13.9089V2.30005Z" fill="#E32B29"/>
<path d="M13.9089 14.9H11.9219V16.7H13.9089V14.9Z" fill="#CC2528"/>
</svg>
