<svg width="24" height="24" viewBox="0 0 16 16" fill="none" xmlns="http://www.w3.org/2000/svg">
<path fill-rule="evenodd" clip-rule="evenodd" d="M11.3333 4.66602H8.66659V5.99935H11.3333C12.4333 5.99935 13.3333 6.89935 13.3333 7.99935C13.3333 9.09935 12.4333 9.99935 11.3333 9.99935H8.66659V11.3327H11.3333C13.1733 11.3327 14.6666 9.83935 14.6666 7.99935C14.6666 6.15935 13.1733 4.66602 11.3333 4.66602ZM7.33325 9.99935H4.66659C3.56659 9.99935 2.66659 9.09935 2.66659 7.99935C2.66659 6.89935 3.56659 5.99935 4.66659 5.99935H7.33325V4.66602H4.66659C2.82659 4.66602 1.33325 6.15935 1.33325 7.99935C1.33325 9.83935 2.82659 11.3327 4.66659 11.3327H7.33325V9.99935ZM5.33325 7.33268H10.6666V8.66602H5.33325V7.33268Z" fill="#626476"/>
</svg>
