<svg width="59" height="59" viewBox="0 0 59 59" fill="none" xmlns="http://www.w3.org/2000/svg">
<rect width="59" height="59" rx="12" fill="#03060F"/>
<g clip-path="url(#clip0_4_2318)">
<path d="M23.0001 25.3143H22.0007V26.2444H23.0001V25.3143Z" fill="#F37441"/>
<path d="M18.0005 20.6627H17.0002V21.5928H18.0005V20.6627Z" fill="#F37441"/>
<path d="M29 27.1737H27.9998V28.1039H29V27.1737Z" fill="#4476F3"/>
<path d="M27.9996 28.1047H27.0002V29.0349H27.9996V28.1047Z" fill="#4476F3"/>
<path d="M27.9996 27.1737H27.0002V28.1039H27.9996V27.1737Z" fill="#4476F3"/>
<path d="M27.0003 28.1047H26V29.0349H27.0003V28.1047Z" fill="#4476F3"/>
<path d="M27.0003 27.1737H26V28.1039H27.0003V27.1737Z" fill="#4476F3"/>
<path d="M26.001 42.0579H25.0007V42.9881H26.001V42.0579Z" fill="#4476F3"/>
<path d="M26.001 28.1047H25.0007V29.0349H26.001V28.1047Z" fill="#4476F3"/>
<path d="M26.001 27.1737H25.0007V28.1039H26.001V27.1737Z" fill="#4476F3"/>
<path d="M25.0005 42.0579H24.0002V42.9881H25.0005V42.0579Z" fill="#4476F3"/>
<path d="M25.0005 41.1286H24.0002V42.0588H25.0005V41.1286Z" fill="#4476F3"/>
<path d="M25.0005 28.1047H24.0002V29.0349H25.0005V28.1047Z" fill="#4476F3"/>
<path d="M25.0005 27.1737H24.0002V28.1039H25.0005V27.1737Z" fill="#4476F3"/>
<path d="M24.0003 42.0579H23V42.9881H24.0003V42.0579Z" fill="#4476F3"/>
<path d="M24.0003 41.1286H23V42.0588H24.0003V41.1286Z" fill="#4476F3"/>
<path d="M24.0003 40.1977H23V41.1278H24.0003V40.1977Z" fill="#4476F3"/>
<path d="M24.0003 39.2675H23V40.1976H24.0003V39.2675Z" fill="#4476F3"/>
<path d="M24.0003 38.3373H23V39.2675H24.0003V38.3373Z" fill="#4476F3"/>
<path d="M24.0003 37.4072H23V38.3374H24.0003V37.4072Z" fill="#4476F3"/>
<path d="M24.0003 36.477H23V37.4071H24.0003V36.477Z" fill="#4476F3"/>
<path d="M24.0003 35.5461H23V36.4762H24.0003V35.5461Z" fill="#4476F3"/>
<path d="M24.0003 28.1047H23V29.0349H24.0003V28.1047Z" fill="#4476F3"/>
<path d="M24.0003 27.1737H23V28.1039H24.0003V27.1737Z" fill="#4476F3"/>
<path d="M23.0001 42.0579H22.0007V42.9881H23.0001V42.0579Z" fill="#4476F3"/>
<path d="M23.0001 41.1286H22.0007V42.0588H23.0001V41.1286Z" fill="#4476F3"/>
<path d="M23.0001 40.1977H22.0007V41.1278H23.0001V40.1977Z" fill="#4476F3"/>
<path d="M23.0001 39.2675H22.0007V40.1976H23.0001V39.2675Z" fill="#4476F3"/>
<path d="M23.0001 38.3373H22.0007V39.2675H23.0001V38.3373Z" fill="#4476F3"/>
<path d="M23.0001 37.4072H22.0007V38.3374H23.0001V37.4072Z" fill="#4476F3"/>
<path d="M23.0001 36.477H22.0007V37.4071H23.0001V36.477Z" fill="#4476F3"/>
<path d="M23.0001 35.5461H22.0007V36.4762H23.0001V35.5461Z" fill="#4476F3"/>
<path d="M23.0001 34.6158H22.0007V35.546H23.0001V34.6158Z" fill="#4476F3"/>
<path d="M23.0001 33.6865H22.0007V34.6167H23.0001V33.6865Z" fill="#4476F3"/>
<path d="M23.0001 32.7564H22.0007V33.6866H23.0001V32.7564Z" fill="#F37441"/>
<path d="M23.0001 31.8254H22.0007V32.7555H23.0001V31.8254Z" fill="#F37441"/>
<path d="M23.0001 30.8953H22.0007V31.8254H23.0001V30.8953Z" fill="#F37441"/>
<path d="M23.0001 29.9651H22.0007V30.8952H23.0001V29.9651Z" fill="#F37441"/>
<path d="M23.0001 29.0349H22.0007V29.9651H23.0001V29.0349Z" fill="#F37441"/>
<path d="M23.0001 28.1047H22.0007V29.0349H23.0001V28.1047Z" fill="#4476F3"/>
<path d="M23.0001 27.1737H22.0007V28.1039H23.0001V27.1737Z" fill="#4476F3"/>
<path d="M23.0001 26.2444H22.0007V27.1745H23.0001V26.2444Z" fill="#4476F3"/>
<path d="M23.0001 24.3842H22.0007V25.3143H23.0001V24.3842Z" fill="#F37441"/>
<path d="M23.0001 23.4531H22.0007V24.3833H23.0001V23.4531Z" fill="#F37441"/>
<path d="M23.0001 22.523H22.0007V23.4532H23.0001V22.523Z" fill="#F37441"/>
<path d="M23.0001 21.5928H22.0007V22.5229H23.0001V21.5928Z" fill="#F37441"/>
<path d="M23.0001 20.6627H22.0007V21.5928H23.0001V20.6627Z" fill="#F37441"/>
<path d="M23.0001 19.7325H22.0007V20.6627H23.0001V19.7325Z" fill="#F37441"/>
<path d="M23.0001 18.8023H22.0007V19.7325H23.0001V18.8023Z" fill="#F37441"/>
<path d="M22.0008 41.1286H21.0005V42.0588H22.0008V41.1286Z" fill="#4476F3"/>
<path d="M22.0008 40.1977H21.0005V41.1278H22.0008V40.1977Z" fill="#4476F3"/>
<path d="M22.0008 39.2675H21.0005V40.1976H22.0008V39.2675Z" fill="#4476F3"/>
<path d="M22.0008 38.3373H21.0005V39.2675H22.0008V38.3373Z" fill="#4476F3"/>
<path d="M22.0008 37.4072H21.0005V38.3374H22.0008V37.4072Z" fill="#4476F3"/>
<path d="M22.0008 36.477H21.0005V37.4071H22.0008V36.477Z" fill="#4476F3"/>
<path d="M22.0008 35.5461H21.0005V36.4762H22.0008V35.5461Z" fill="#4476F3"/>
<path d="M22.0008 34.6158H21.0005V35.546H22.0008V34.6158Z" fill="#4476F3"/>
<path d="M22.0008 33.6865H21.0005V34.6167H22.0008V33.6865Z" fill="#4476F3"/>
<path d="M22.0008 32.7564H21.0005V33.6866H22.0008V32.7564Z" fill="#4476F3"/>
<path d="M22.0008 31.8254H21.0005V32.7555H22.0008V31.8254Z" fill="#F37441"/>
<path d="M22.0008 30.8953H21.0005V31.8254H22.0008V30.8953Z" fill="#F37441"/>
<path d="M22.0008 29.9651H21.0005V30.8952H22.0008V29.9651Z" fill="#F37441"/>
<path d="M22.0008 29.0349H21.0005V29.9651H22.0008V29.0349Z" fill="#F37441"/>
<path d="M22.0008 28.1047H21.0005V29.0349H22.0008V28.1047Z" fill="#4476F3"/>
<path d="M22.0008 27.1737H21.0005V28.1039H22.0008V27.1737Z" fill="#4476F3"/>
<path d="M22.0008 26.2444H21.0005V27.1745H22.0008V26.2444Z" fill="#4476F3"/>
<path d="M22.0008 25.3143H21.0005V26.2444H22.0008V25.3143Z" fill="#4476F3"/>
<path d="M22.0008 24.3842H21.0005V25.3143H22.0008V24.3842Z" fill="#4476F3"/>
<path d="M22.0008 23.4531H21.0005V24.3833H22.0008V23.4531Z" fill="#F37441"/>
<path d="M22.0008 22.523H21.0005V23.4532H22.0008V22.523Z" fill="#F37441"/>
<path d="M22.0008 21.5928H21.0005V22.5229H22.0008V21.5928Z" fill="#F37441"/>
<path d="M22.0008 20.6627H21.0005V21.5928H22.0008V20.6627Z" fill="#4476F3"/>
<path d="M22.0008 19.7325H21.0005V20.6627H22.0008V19.7325Z" fill="#4476F3"/>
<path d="M22.0008 18.8023H21.0005V19.7325H22.0008V18.8023Z" fill="#4476F3"/>
<path d="M22.0008 17.8722H21.0005V18.8023H22.0008V17.8722Z" fill="#F37441"/>
<path d="M21.0005 41.1286H20.0002V42.0588H21.0005V41.1286Z" fill="#F37441"/>
<path d="M21.0005 40.1977H20.0002V41.1278H21.0005V40.1977Z" fill="#4476F3"/>
<path d="M21.0005 39.2675H20.0002V40.1976H21.0005V39.2675Z" fill="#F37441"/>
<path d="M21.0005 38.3373H20.0002V39.2675H21.0005V38.3373Z" fill="#F37441"/>
<path d="M21.0005 37.4072H20.0002V38.3374H21.0005V37.4072Z" fill="#F37441"/>
<path d="M21.0005 36.477H20.0002V37.4071H21.0005V36.477Z" fill="#4476F3"/>
<path d="M21.0005 35.5461H20.0002V36.4762H21.0005V35.5461Z" fill="#4476F3"/>
<path d="M21.0005 34.6158H20.0002V35.546H21.0005V34.6158Z" fill="#4476F3"/>
<path d="M21.0005 33.6865H20.0002V34.6167H21.0005V33.6865Z" fill="#4476F3"/>
<path d="M21.0005 32.7564H20.0002V33.6866H21.0005V32.7564Z" fill="#4476F3"/>
<path d="M21.0005 31.8254H20.0002V32.7555H21.0005V31.8254Z" fill="#4476F3"/>
<path d="M21.0005 30.8953H20.0002V31.8254H21.0005V30.8953Z" fill="#F37441"/>
<path d="M21.0005 29.9651H20.0002V30.8952H21.0005V29.9651Z" fill="#F37441"/>
<path d="M21.0005 29.0349H20.0002V29.9651H21.0005V29.0349Z" fill="#F37441"/>
<path d="M21.0005 28.1047H20.0002V29.0349H21.0005V28.1047Z" fill="#F37441"/>
<path d="M21.0005 27.1737H20.0002V28.1039H21.0005V27.1737Z" fill="#4476F3"/>
<path d="M21.0005 26.2444H20.0002V27.1745H21.0005V26.2444Z" fill="#4476F3"/>
<path d="M21.0005 25.3143H20.0002V26.2444H21.0005V25.3143Z" fill="#4476F3"/>
<path d="M21.0005 24.3842H20.0002V25.3143H21.0005V24.3842Z" fill="#4476F3"/>
<path d="M21.0005 23.4531H20.0002V24.3833H21.0005V23.4531Z" fill="#4476F3"/>
<path d="M21.0005 22.523H20.0002V23.4532H21.0005V22.523Z" fill="#F37441"/>
<path d="M21.0005 21.5928H20.0002V22.5229H21.0005V21.5928Z" fill="#4476F3"/>
<path d="M21.0005 20.6627H20.0002V21.5928H21.0005V20.6627Z" fill="#4476F3"/>
<path d="M21.0005 19.7325H20.0002V20.6627H21.0005V19.7325Z" fill="#4476F3"/>
<path d="M21.0005 18.8023H20.0002V19.7325H21.0005V18.8023Z" fill="#4476F3"/>
<path d="M21.0005 17.8722H20.0002V18.8023H21.0005V17.8722Z" fill="#4476F3"/>
<path d="M21.0005 16.9421H20.0002V17.8722H21.0005V16.9421Z" fill="#F37441"/>
<path d="M20 42.0579H18.9998V42.9881H20V42.0579Z" fill="#F37441"/>
<path d="M20 41.1286H18.9998V42.0588H20V41.1286Z" fill="#F37441"/>
<path d="M20 40.1977H18.9998V41.1278H20V40.1977Z" fill="#F37441"/>
<path d="M20 39.2675H18.9998V40.1976H20V39.2675Z" fill="#F37441"/>
<path d="M20 38.3373H18.9998V39.2675H20V38.3373Z" fill="#F37441"/>
<path d="M20 37.4072H18.9998V38.3374H20V37.4072Z" fill="#F37441"/>
<path d="M20 36.477H18.9998V37.4071H20V36.477Z" fill="#F37441"/>
<path d="M20 35.5461H18.9998V36.4762H20V35.5461Z" fill="#F37441"/>
<path d="M20 34.6158H18.9998V35.546H20V34.6158Z" fill="#4476F3"/>
<path d="M20 33.6865H18.9998V34.6167H20V33.6865Z" fill="#4476F3"/>
<path d="M20 32.7564H18.9998V33.6866H20V32.7564Z" fill="#4476F3"/>
<path d="M20 31.8254H18.9998V32.7555H20V31.8254Z" fill="#4476F3"/>
<path d="M20 30.8953H18.9998V31.8254H20V30.8953Z" fill="#4476F3"/>
<path d="M20 29.9651H18.9998V30.8952H20V29.9651Z" fill="#F37441"/>
<path d="M20 29.0349H18.9998V29.9651H20V29.0349Z" fill="#F37441"/>
<path d="M20 28.1047H18.9998V29.0349H20V28.1047Z" fill="#4476F3"/>
<path d="M20 27.1737H18.9998V28.1039H20V27.1737Z" fill="#4476F3"/>
<path d="M20 26.2444H18.9998V27.1745H20V26.2444Z" fill="#4476F3"/>
<path d="M20 25.3143H18.9998V26.2444H20V25.3143Z" fill="#4476F3"/>
<path d="M20 24.3842H18.9998V25.3143H20V24.3842Z" fill="#4476F3"/>
<path d="M20 23.4531H18.9998V24.3833H20V23.4531Z" fill="#4476F3"/>
<path d="M20 22.523H18.9998V23.4532H20V22.523Z" fill="#4476F3"/>
<path d="M20 21.5928H18.9998V22.5229H20V21.5928Z" fill="#4476F3"/>
<path d="M20 20.6627H18.9998V21.5928H20V20.6627Z" fill="#4476F3"/>
<path d="M20 19.7325H18.9998V20.6627H20V19.7325Z" fill="#4476F3"/>
<path d="M20 18.8023H18.9998V19.7325H20V18.8023Z" fill="#4476F3"/>
<path d="M20 17.8722H18.9998V18.8023H20V17.8722Z" fill="#4476F3"/>
<path d="M20 16.9421H18.9998V17.8722H20V16.9421Z" fill="#F37441"/>
<path d="M20 16.012H18.9998V16.9421H20V16.012Z" fill="#F37441"/>
<path d="M18.9999 42.988H18.0005V43.9182H18.9999V42.988Z" fill="#F37441"/>
<path d="M18.9999 42.0579H18.0005V42.9881H18.9999V42.0579Z" fill="#F37441"/>
<path d="M18.9999 41.1286H18.0005V42.0588H18.9999V41.1286Z" fill="#F37441"/>
<path d="M18.9999 40.1977H18.0005V41.1278H18.9999V40.1977Z" fill="#F37441"/>
<path d="M18.9999 39.2675H18.0005V40.1976H18.9999V39.2675Z" fill="#F37441"/>
<path d="M18.9999 38.3373H18.0005V39.2675H18.9999V38.3373Z" fill="#F37441"/>
<path d="M18.9999 37.4072H18.0005V38.3374H18.9999V37.4072Z" fill="#F37441"/>
<path d="M18.9999 36.477H18.0005V37.4071H18.9999V36.477Z" fill="#F37441"/>
<path d="M18.9999 35.5461H18.0005V36.4762H18.9999V35.5461Z" fill="#F37441"/>
<path d="M18.9999 34.6158H18.0005V35.546H18.9999V34.6158Z" fill="#F37441"/>
<path d="M18.9999 33.6865H18.0005V34.6167H18.9999V33.6865Z" fill="#4476F3"/>
<path d="M18.9999 32.7564H18.0005V33.6866H18.9999V32.7564Z" fill="#4476F3"/>
<path d="M18.9999 31.8254H18.0005V32.7555H18.9999V31.8254Z" fill="#4476F3"/>
<path d="M18.9999 30.8953H18.0005V31.8254H18.9999V30.8953Z" fill="#4476F3"/>
<path d="M18.9999 29.9651H18.0005V30.8952H18.9999V29.9651Z" fill="#4476F3"/>
<path d="M18.9999 29.0349H18.0005V29.9651H18.9999V29.0349Z" fill="#4476F3"/>
<path d="M18.9999 28.1047H18.0005V29.0349H18.9999V28.1047Z" fill="#4476F3"/>
<path d="M18.9999 27.1737H18.0005V28.1039H18.9999V27.1737Z" fill="#4476F3"/>
<path d="M18.9999 26.2444H18.0005V27.1745H18.9999V26.2444Z" fill="#4476F3"/>
<path d="M18.9999 25.3143H18.0005V26.2444H18.9999V25.3143Z" fill="#4476F3"/>
<path d="M18.9999 24.3842H18.0005V25.3143H18.9999V24.3842Z" fill="#4476F3"/>
<path d="M18.9999 23.4531H18.0005V24.3833H18.9999V23.4531Z" fill="#4476F3"/>
<path d="M18.9999 22.523H18.0005V23.4532H18.9999V22.523Z" fill="#4476F3"/>
<path d="M18.9999 21.5928H18.0005V22.5229H18.9999V21.5928Z" fill="#4476F3"/>
<path d="M18.9999 20.6627H18.0005V21.5928H18.9999V20.6627Z" fill="#4476F3"/>
<path d="M18.9999 19.7325H18.0005V20.6627H18.9999V19.7325Z" fill="#4476F3"/>
<path d="M18.9999 18.8023H18.0005V19.7325H18.9999V18.8023Z" fill="#4476F3"/>
<path d="M18.9999 17.8722H18.0005V18.8023H18.9999V17.8722Z" fill="#4476F3"/>
<path d="M18.9999 16.9421H18.0005V17.8722H18.9999V16.9421Z" fill="#F37441"/>
<path d="M18.9999 16.012H18.0005V16.9421H18.9999V16.012Z" fill="#F37441"/>
<path d="M18.9999 15.0809H18.0005V16.0111H18.9999V15.0809Z" fill="#F37441"/>
<path d="M18.0005 43.9183H17.0002V44.8484H18.0005V43.9183Z" fill="#F37441"/>
<path d="M18.0005 42.988H17.0002V43.9182H18.0005V42.988Z" fill="#F37441"/>
<path d="M18.0005 42.0579H17.0002V42.9881H18.0005V42.0579Z" fill="#F37441"/>
<path d="M18.0005 41.1286H17.0002V42.0588H18.0005V41.1286Z" fill="#F37441"/>
<path d="M18.0005 40.1977H17.0002V41.1278H18.0005V40.1977Z" fill="#F37441"/>
<path d="M18.0005 39.2675H17.0002V40.1976H18.0005V39.2675Z" fill="#F37441"/>
<path d="M18.0005 38.3373H17.0002V39.2675H18.0005V38.3373Z" fill="#F37441"/>
<path d="M18.0005 37.4072H17.0002V38.3374H18.0005V37.4072Z" fill="#F37441"/>
<path d="M18.0005 36.477H17.0002V37.4071H18.0005V36.477Z" fill="#F37441"/>
<path d="M18.0005 35.5461H17.0002V36.4762H18.0005V35.5461Z" fill="#F37441"/>
<path d="M18.0005 34.6158H17.0002V35.546H18.0005V34.6158Z" fill="#F37441"/>
<path d="M18.0005 33.6865H17.0002V34.6167H18.0005V33.6865Z" fill="#4476F3"/>
<path d="M18.0005 32.7564H17.0002V33.6866H18.0005V32.7564Z" fill="#4476F3"/>
<path d="M18.0005 31.8254H17.0002V32.7555H18.0005V31.8254Z" fill="#4476F3"/>
<path d="M18.0005 30.8953H17.0002V31.8254H18.0005V30.8953Z" fill="#4476F3"/>
<path d="M18.0005 29.9651H17.0002V30.8952H18.0005V29.9651Z" fill="#4476F3"/>
<path d="M18.0005 29.0349H17.0002V29.9651H18.0005V29.0349Z" fill="#4476F3"/>
<path d="M18.0005 28.1047H17.0002V29.0349H18.0005V28.1047Z" fill="#4476F3"/>
<path d="M18.0005 27.1737H17.0002V28.1039H18.0005V27.1737Z" fill="#4476F3"/>
<path d="M18.0005 26.2444H17.0002V27.1745H18.0005V26.2444Z" fill="#4476F3"/>
<path d="M18.0005 25.3143H17.0002V26.2444H18.0005V25.3143Z" fill="#4476F3"/>
<path d="M18.0005 24.3842H17.0002V25.3143H18.0005V24.3842Z" fill="#4476F3"/>
<path d="M18.0005 23.4531H17.0002V24.3833H18.0005V23.4531Z" fill="#4476F3"/>
<path d="M18.0005 22.523H17.0002V23.4532H18.0005V22.523Z" fill="#4476F3"/>
<path d="M18.0005 21.5928H17.0002V22.5229H18.0005V21.5928Z" fill="#4476F3"/>
<path d="M18.0005 19.7325H17.0002V20.6627H18.0005V19.7325Z" fill="#4476F3"/>
<path d="M18.0005 18.8023H17.0002V19.7325H18.0005V18.8023Z" fill="#4476F3"/>
<path d="M18.0005 17.8722H17.0002V18.8023H18.0005V17.8722Z" fill="#F37441"/>
<path d="M18.0005 16.9421H17.0002V17.8722H18.0005V16.9421Z" fill="#F37441"/>
<path d="M18.0005 16.012H17.0002V16.9421H18.0005V16.012Z" fill="#F37441"/>
<path d="M18.0005 15.0809H17.0002V16.0111H18.0005V15.0809Z" fill="#F37441"/>
<path d="M18.0005 14.1507H17.0002V15.0808H18.0005V14.1507Z" fill="#F37441"/>
<path d="M17 44.8493H15.9998V45.7795H17V44.8493Z" fill="#F37441"/>
<path d="M17 43.9183H15.9998V44.8484H17V43.9183Z" fill="#F37441"/>
<path d="M17 42.988H15.9998V43.9182H17V42.988Z" fill="#F37441"/>
<path d="M17 42.0579H15.9998V42.9881H17V42.0579Z" fill="#F37441"/>
<path d="M17 41.1286H15.9998V42.0588H17V41.1286Z" fill="#F37441"/>
<path d="M17 40.1977H15.9998V41.1278H17V40.1977Z" fill="#F37441"/>
<path d="M17 39.2675H15.9998V40.1976H17V39.2675Z" fill="#F37441"/>
<path d="M17 38.3373H15.9998V39.2675H17V38.3373Z" fill="#F37441"/>
<path d="M17 37.4072H15.9998V38.3374H17V37.4072Z" fill="#F37441"/>
<path d="M17 36.477H15.9998V37.4071H17V36.477Z" fill="#F37441"/>
<path d="M17 35.5461H15.9998V36.4762H17V35.5461Z" fill="#F37441"/>
<path d="M17 34.6158H15.9998V35.546H17V34.6158Z" fill="#F37441"/>
<path d="M17 33.6865H15.9998V34.6167H17V33.6865Z" fill="#F37441"/>
<path d="M17 32.7564H15.9998V33.6866H17V32.7564Z" fill="#F37441"/>
<path d="M17 31.8254H15.9998V32.7555H17V31.8254Z" fill="#F37441"/>
<path d="M17 30.8953H15.9998V31.8254H17V30.8953Z" fill="#F37441"/>
<path d="M17 29.9651H15.9998V30.8952H17V29.9651Z" fill="#F37441"/>
<path d="M17 29.0349H15.9998V29.9651H17V29.0349Z" fill="#F37441"/>
<path d="M17 28.1047H15.9998V29.0349H17V28.1047Z" fill="#F37441"/>
<path d="M17 27.1737H15.9998V28.1039H17V27.1737Z" fill="#F37441"/>
<path d="M17 26.2444H15.9998V27.1745H17V26.2444Z" fill="#F37441"/>
<path d="M17 25.3143H15.9998V26.2444H17V25.3143Z" fill="#F37441"/>
<path d="M17 24.3842H15.9998V25.3143H17V24.3842Z" fill="#F37441"/>
<path d="M17 23.4531H15.9998V24.3833H17V23.4531Z" fill="#F37441"/>
<path d="M17 22.523H15.9998V23.4532H17V22.523Z" fill="#F37441"/>
<path d="M17 21.5928H15.9998V22.5229H17V21.5928Z" fill="#F37441"/>
<path d="M17 20.6627H15.9998V21.5928H17V20.6627Z" fill="#F37441"/>
<path d="M17 19.7325H15.9998V20.6627H17V19.7325Z" fill="#F37441"/>
<path d="M17 18.8023H15.9998V19.7325H17V18.8023Z" fill="#F37441"/>
<path d="M17 17.8722H15.9998V18.8023H17V17.8722Z" fill="#F37441"/>
<path d="M17 16.9421H15.9998V17.8722H17V16.9421Z" fill="#F37441"/>
<path d="M17 16.012H15.9998V16.9421H17V16.012Z" fill="#F37441"/>
<path d="M17 15.0809H15.9998V16.0111H17V15.0809Z" fill="#F37441"/>
<path d="M17 14.1507H15.9998V15.0808H17V14.1507Z" fill="#F37441"/>
<path d="M17 13.2206H15.9998V14.1507H17V13.2206Z" fill="#F37441"/>
<path d="M15.9998 45.7794H14.9995V46.7096H15.9998V45.7794Z" fill="#F37441"/>
<path d="M15.9998 44.8493H14.9995V45.7795H15.9998V44.8493Z" fill="#F37441"/>
<path d="M15.9998 43.9183H14.9995V44.8484H15.9998V43.9183Z" fill="#F37441"/>
<path d="M15.9998 42.988H14.9995V43.9182H15.9998V42.988Z" fill="#F37441"/>
<path d="M15.9998 42.0579H14.9995V42.9881H15.9998V42.0579Z" fill="#F37441"/>
<path d="M15.9998 41.1286H14.9995V42.0588H15.9998V41.1286Z" fill="#F37441"/>
<path d="M15.9998 40.1977H14.9995V41.1278H15.9998V40.1977Z" fill="#F37441"/>
<path d="M15.9998 39.2675H14.9995V40.1976H15.9998V39.2675Z" fill="#F37441"/>
<path d="M15.9998 38.3373H14.9995V39.2675H15.9998V38.3373Z" fill="#F37441"/>
<path d="M15.9998 37.4072H14.9995V38.3374H15.9998V37.4072Z" fill="#F37441"/>
<path d="M15.9998 36.477H14.9995V37.4071H15.9998V36.477Z" fill="#F37441"/>
<path d="M15.9998 35.5461H14.9995V36.4762H15.9998V35.5461Z" fill="#F37441"/>
<path d="M15.9998 34.6158H14.9995V35.546H15.9998V34.6158Z" fill="#F37441"/>
<path d="M15.9998 33.6865H14.9995V34.6167H15.9998V33.6865Z" fill="#F37441"/>
<path d="M15.9998 32.7564H14.9995V33.6866H15.9998V32.7564Z" fill="#F37441"/>
<path d="M15.9998 31.8254H14.9995V32.7555H15.9998V31.8254Z" fill="#F37441"/>
<path d="M15.9998 30.8953H14.9995V31.8254H15.9998V30.8953Z" fill="#F37441"/>
<path d="M15.9998 29.9651H14.9995V30.8952H15.9998V29.9651Z" fill="#F37441"/>
<path d="M15.9998 29.0349H14.9995V29.9651H15.9998V29.0349Z" fill="#F37441"/>
<path d="M15.9998 28.1047H14.9995V29.0349H15.9998V28.1047Z" fill="#F37441"/>
<path d="M15.9998 27.1737H14.9995V28.1039H15.9998V27.1737Z" fill="#F37441"/>
<path d="M15.9998 26.2444H14.9995V27.1745H15.9998V26.2444Z" fill="#F37441"/>
<path d="M15.9998 25.3143H14.9995V26.2444H15.9998V25.3143Z" fill="#F37441"/>
<path d="M15.9998 24.3842H14.9995V25.3143H15.9998V24.3842Z" fill="#F37441"/>
<path d="M15.9998 23.4531H14.9995V24.3833H15.9998V23.4531Z" fill="#F37441"/>
<path d="M15.9998 22.523H14.9995V23.4532H15.9998V22.523Z" fill="#F37441"/>
<path d="M15.9998 21.5928H14.9995V22.5229H15.9998V21.5928Z" fill="#F37441"/>
<path d="M15.9998 20.6627H14.9995V21.5928H15.9998V20.6627Z" fill="#F37441"/>
<path d="M15.9998 19.7325H14.9995V20.6627H15.9998V19.7325Z" fill="#F37441"/>
<path d="M15.9998 18.8023H14.9995V19.7325H15.9998V18.8023Z" fill="#F37441"/>
<path d="M15.9998 17.8722H14.9995V18.8023H15.9998V17.8722Z" fill="#F37441"/>
<path d="M15.9998 16.9421H14.9995V17.8722H15.9998V16.9421Z" fill="#F37441"/>
<path d="M15.9998 16.012H14.9995V16.9421H15.9998V16.012Z" fill="#F37441"/>
<path d="M15.9998 15.0809H14.9995V16.0111H15.9998V15.0809Z" fill="#F37441"/>
<path d="M15.9998 14.1507H14.9995V15.0808H15.9998V14.1507Z" fill="#F37441"/>
<path d="M15.9998 13.2206H14.9995V14.1507H15.9998V13.2206Z" fill="#F37441"/>
<path d="M15.9998 12.2914H14.9995V13.2215H15.9998V12.2914Z" fill="#F37441"/>
<path d="M14.9996 46.7095H14.0002V47.6397H14.9996V46.7095Z" fill="#F37441"/>
<path d="M14.9996 45.7794H14.0002V46.7096H14.9996V45.7794Z" fill="#F37441"/>
<path d="M14.9996 44.8493H14.0002V45.7795H14.9996V44.8493Z" fill="#F37441"/>
<path d="M14.9996 43.9183H14.0002V44.8484H14.9996V43.9183Z" fill="#F37441"/>
<path d="M14.9996 42.988H14.0002V43.9182H14.9996V42.988Z" fill="#F37441"/>
<path d="M14.9996 42.0579H14.0002V42.9881H14.9996V42.0579Z" fill="#F37441"/>
<path d="M14.9996 41.1286H14.0002V42.0588H14.9996V41.1286Z" fill="#F37441"/>
<path d="M14.9996 40.1977H14.0002V41.1278H14.9996V40.1977Z" fill="#F37441"/>
<path d="M14.9996 39.2675H14.0002V40.1976H14.9996V39.2675Z" fill="#F37441"/>
<path d="M14.9996 38.3373H14.0002V39.2675H14.9996V38.3373Z" fill="#F37441"/>
<path d="M14.9996 37.4072H14.0002V38.3374H14.9996V37.4072Z" fill="#F37441"/>
<path d="M14.9996 36.477H14.0002V37.4071H14.9996V36.477Z" fill="#F37441"/>
<path d="M14.9996 35.5461H14.0002V36.4762H14.9996V35.5461Z" fill="#F37441"/>
<path d="M14.9996 34.6158H14.0002V35.546H14.9996V34.6158Z" fill="#F37441"/>
<path d="M14.9996 33.6865H14.0002V34.6167H14.9996V33.6865Z" fill="#F37441"/>
<path d="M14.9996 32.7564H14.0002V33.6866H14.9996V32.7564Z" fill="#F37441"/>
<path d="M14.9996 31.8254H14.0002V32.7555H14.9996V31.8254Z" fill="#F37441"/>
<path d="M14.9996 30.8953H14.0002V31.8254H14.9996V30.8953Z" fill="#F37441"/>
<path d="M14.9996 29.9651H14.0002V30.8952H14.9996V29.9651Z" fill="#F37441"/>
<path d="M14.9996 29.0349H14.0002V29.9651H14.9996V29.0349Z" fill="#F37441"/>
<path d="M14.9996 28.1047H14.0002V29.0349H14.9996V28.1047Z" fill="#F37441"/>
<path d="M14.9996 27.1737H14.0002V28.1039H14.9996V27.1737Z" fill="#F37441"/>
<path d="M14.9996 26.2444H14.0002V27.1745H14.9996V26.2444Z" fill="#F37441"/>
<path d="M14.9996 25.3143H14.0002V26.2444H14.9996V25.3143Z" fill="#F37441"/>
<path d="M14.9996 24.3842H14.0002V25.3143H14.9996V24.3842Z" fill="#F37441"/>
<path d="M14.9996 23.4531H14.0002V24.3833H14.9996V23.4531Z" fill="#F37441"/>
<path d="M14.9996 22.523H14.0002V23.4532H14.9996V22.523Z" fill="#F37441"/>
<path d="M14.9996 21.5928H14.0002V22.5229H14.9996V21.5928Z" fill="#F37441"/>
<path d="M14.9996 20.6627H14.0002V21.5928H14.9996V20.6627Z" fill="#F37441"/>
<path d="M14.9996 19.7325H14.0002V20.6627H14.9996V19.7325Z" fill="#F37441"/>
<path d="M14.9996 18.8023H14.0002V19.7325H14.9996V18.8023Z" fill="#F37441"/>
<path d="M14.9996 17.8722H14.0002V18.8023H14.9996V17.8722Z" fill="#F37441"/>
<path d="M14.9996 16.9421H14.0002V17.8722H14.9996V16.9421Z" fill="#F37441"/>
<path d="M14.9996 16.012H14.0002V16.9421H14.9996V16.012Z" fill="#F37441"/>
<path d="M14.9996 15.0809H14.0002V16.0111H14.9996V15.0809Z" fill="#F37441"/>
<path d="M14.9996 14.1507H14.0002V15.0808H14.9996V14.1507Z" fill="#F37441"/>
<path d="M14.9996 13.2206H14.0002V14.1507H14.9996V13.2206Z" fill="#F37441"/>
<path d="M14.9996 12.2914H14.0002V13.2215H14.9996V12.2914Z" fill="#F37441"/>
<path d="M14.9996 11.3604H14.0002V12.2905H14.9996V11.3604Z" fill="#F37441"/>
<path d="M14.0003 47.6396H13V48.5698H14.0003V47.6396Z" fill="#F37441"/>
<path d="M14.0003 46.7095H13V47.6397H14.0003V46.7095Z" fill="#F37441"/>
<path d="M14.0003 45.7794H13V46.7096H14.0003V45.7794Z" fill="#F37441"/>
<path d="M14.0003 44.8493H13V45.7795H14.0003V44.8493Z" fill="#F37441"/>
<path d="M14.0003 43.9183H13V44.8484H14.0003V43.9183Z" fill="#F37441"/>
<path d="M14.0003 42.988H13V43.9182H14.0003V42.988Z" fill="#F37441"/>
<path d="M14.0003 42.0579H13V42.9881H14.0003V42.0579Z" fill="#F37441"/>
<path d="M14.0003 41.1286H13V42.0588H14.0003V41.1286Z" fill="#F37441"/>
<path d="M14.0003 40.1977H13V41.1278H14.0003V40.1977Z" fill="#F37441"/>
<path d="M14.0003 39.2675H13V40.1976H14.0003V39.2675Z" fill="#F37441"/>
<path d="M14.0003 38.3373H13V39.2675H14.0003V38.3373Z" fill="#F37441"/>
<path d="M14.0003 37.4072H13V38.3374H14.0003V37.4072Z" fill="#F37441"/>
<path d="M14.0003 36.477H13V37.4071H14.0003V36.477Z" fill="#F37441"/>
<path d="M14.0003 35.5461H13V36.4762H14.0003V35.5461Z" fill="#F37441"/>
<path d="M14.0003 34.6158H13V35.546H14.0003V34.6158Z" fill="#F37441"/>
<path d="M14.0003 33.6865H13V34.6167H14.0003V33.6865Z" fill="#F37441"/>
<path d="M14.0003 32.7564H13V33.6866H14.0003V32.7564Z" fill="#F37441"/>
<path d="M14.0003 31.8254H13V32.7555H14.0003V31.8254Z" fill="#F37441"/>
<path d="M14.0003 30.8953H13V31.8254H14.0003V30.8953Z" fill="#F37441"/>
<path d="M14.0003 29.9651H13V30.8952H14.0003V29.9651Z" fill="#F37441"/>
<path d="M14.0003 29.0349H13V29.9651H14.0003V29.0349Z" fill="#F37441"/>
<path d="M14.0003 28.1047H13V29.0349H14.0003V28.1047Z" fill="#F37441"/>
<path d="M14.0003 27.1737H13V28.1039H14.0003V27.1737Z" fill="#F37441"/>
<path d="M14.0003 26.2444H13V27.1745H14.0003V26.2444Z" fill="#F37441"/>
<path d="M14.0003 25.3143H13V26.2444H14.0003V25.3143Z" fill="#F37441"/>
<path d="M14.0003 24.3842H13V25.3143H14.0003V24.3842Z" fill="#F37441"/>
<path d="M14.0003 23.4531H13V24.3833H14.0003V23.4531Z" fill="#F37441"/>
<path d="M14.0003 22.523H13V23.4532H14.0003V22.523Z" fill="#F37441"/>
<path d="M14.0003 21.5928H13V22.5229H14.0003V21.5928Z" fill="#F37441"/>
<path d="M14.0003 20.6627H13V21.5928H14.0003V20.6627Z" fill="#F37441"/>
<path d="M14.0003 19.7325H13V20.6627H14.0003V19.7325Z" fill="#F37441"/>
<path d="M14.0003 18.8023H13V19.7325H14.0003V18.8023Z" fill="#F37441"/>
<path d="M14.0003 17.8722H13V18.8023H14.0003V17.8722Z" fill="#F37441"/>
<path d="M14.0003 16.9421H13V17.8722H14.0003V16.9421Z" fill="#F37441"/>
<path d="M14.0003 16.012H13V16.9421H14.0003V16.012Z" fill="#F37441"/>
<path d="M14.0003 15.0809H13V16.0111H14.0003V15.0809Z" fill="#F37441"/>
<path d="M14.0003 14.1507H13V15.0808H14.0003V14.1507Z" fill="#F37441"/>
<path d="M14.0003 13.2206H13V14.1507H14.0003V13.2206Z" fill="#F37441"/>
<path d="M14.0003 12.2914H13V13.2215H14.0003V12.2914Z" fill="#F37441"/>
<path d="M14.0003 11.3604H13V12.2905H14.0003V11.3604Z" fill="#F37441"/>
<path d="M14.0003 10.4301H13V11.3603H14.0003V10.4301Z" fill="#F37441"/>
<path d="M13.0008 48.5699H12.0005V49.5H13.0008V48.5699Z" fill="#F37441"/>
<path d="M13.0008 47.6396H12.0005V48.5698H13.0008V47.6396Z" fill="#F37441"/>
<path d="M13.0008 46.7095H12.0005V47.6397H13.0008V46.7095Z" fill="#F37441"/>
<path d="M13.0008 45.7794H12.0005V46.7096H13.0008V45.7794Z" fill="#F37441"/>
<path d="M13.0008 44.8493H12.0005V45.7795H13.0008V44.8493Z" fill="#F37441"/>
<path d="M13.0008 43.9183H12.0005V44.8484H13.0008V43.9183Z" fill="#F37441"/>
<path d="M13.0008 42.988H12.0005V43.9182H13.0008V42.988Z" fill="#F37441"/>
<path d="M13.0008 42.0579H12.0005V42.9881H13.0008V42.0579Z" fill="#F37441"/>
<path d="M13.0008 41.1286H12.0005V42.0588H13.0008V41.1286Z" fill="#F37441"/>
<path d="M13.0008 40.1977H12.0005V41.1278H13.0008V40.1977Z" fill="#F37441"/>
<path d="M13.0008 39.2675H12.0005V40.1976H13.0008V39.2675Z" fill="#F37441"/>
<path d="M13.0008 38.3373H12.0005V39.2675H13.0008V38.3373Z" fill="#F37441"/>
<path d="M13.0008 37.4072H12.0005V38.3374H13.0008V37.4072Z" fill="#F37441"/>
<path d="M13.0008 36.477H12.0005V37.4071H13.0008V36.477Z" fill="#F37441"/>
<path d="M13.0008 35.5461H12.0005V36.4762H13.0008V35.5461Z" fill="#F37441"/>
<path d="M13.0008 34.6158H12.0005V35.546H13.0008V34.6158Z" fill="#F37441"/>
<path d="M13.0008 33.6865H12.0005V34.6167H13.0008V33.6865Z" fill="#F37441"/>
<path d="M13.0008 32.7564H12.0005V33.6866H13.0008V32.7564Z" fill="#F37441"/>
<path d="M13.0008 31.8254H12.0005V32.7555H13.0008V31.8254Z" fill="#F37441"/>
<path d="M13.0008 30.8953H12.0005V31.8254H13.0008V30.8953Z" fill="#F37441"/>
<path d="M13.0008 29.9651H12.0005V30.8952H13.0008V29.9651Z" fill="#F37441"/>
<path d="M13.0008 29.0349H12.0005V29.9651H13.0008V29.0349Z" fill="#F37441"/>
<path d="M13.0008 28.1047H12.0005V29.0349H13.0008V28.1047Z" fill="#F37441"/>
<path d="M13.0008 27.1737H12.0005V28.1039H13.0008V27.1737Z" fill="#F37441"/>
<path d="M13.0008 26.2444H12.0005V27.1745H13.0008V26.2444Z" fill="#F37441"/>
<path d="M13.0008 25.3143H12.0005V26.2444H13.0008V25.3143Z" fill="#F37441"/>
<path d="M13.0008 24.3842H12.0005V25.3143H13.0008V24.3842Z" fill="#F37441"/>
<path d="M13.0008 23.4531H12.0005V24.3833H13.0008V23.4531Z" fill="#F37441"/>
<path d="M13.0008 22.523H12.0005V23.4532H13.0008V22.523Z" fill="#F37441"/>
<path d="M13.0008 21.5928H12.0005V22.5229H13.0008V21.5928Z" fill="#F37441"/>
<path d="M13.0008 20.6627H12.0005V21.5928H13.0008V20.6627Z" fill="#F37441"/>
<path d="M13.0008 19.7325H12.0005V20.6627H13.0008V19.7325Z" fill="#F37441"/>
<path d="M13.0008 18.8023H12.0005V19.7325H13.0008V18.8023Z" fill="#F37441"/>
<path d="M13.0008 17.8722H12.0005V18.8023H13.0008V17.8722Z" fill="#F37441"/>
<path d="M13.0008 16.9421H12.0005V17.8722H13.0008V16.9421Z" fill="#F37441"/>
<path d="M13.0008 16.012H12.0005V16.9421H13.0008V16.012Z" fill="#F37441"/>
<path d="M13.0008 15.0809H12.0005V16.0111H13.0008V15.0809Z" fill="#F37441"/>
<path d="M13.0008 14.1507H12.0005V15.0808H13.0008V14.1507Z" fill="#F37441"/>
<path d="M13.0008 13.2206H12.0005V14.1507H13.0008V13.2206Z" fill="#F37441"/>
<path d="M13.0008 12.2914H12.0005V13.2215H13.0008V12.2914Z" fill="#F37441"/>
<path d="M13.0008 11.3604H12.0005V12.2905H13.0008V11.3604Z" fill="#F37441"/>
<path d="M13.0008 10.4301H12.0005V11.3603H13.0008V10.4301Z" fill="#F37441"/>
<path d="M13.0008 9.5H12.0005V10.4302H13.0008V9.5Z" fill="#F37441"/>
<path d="M12.0005 39.2675H11.0002V40.1976H12.0005V39.2675Z" fill="#4476F3"/>
<path d="M12.0005 38.3373H11.0002V39.2675H12.0005V38.3373Z" fill="#4476F3"/>
<path d="M12.0005 37.4072H11.0002V38.3374H12.0005V37.4072Z" fill="#4476F3"/>
<path d="M12.0005 26.2444H11.0002V27.1745H12.0005V26.2444Z" fill="#4476F3"/>
<path d="M12.0005 25.3143H11.0002V26.2444H12.0005V25.3143Z" fill="#4476F3"/>
<path d="M11.0004 42.0579H10.001V42.9881H11.0004V42.0579Z" fill="#4476F3"/>
<path d="M11.0004 40.1977H10.001V41.1278H11.0004V40.1977Z" fill="#4476F3"/>
<path d="M11.0004 39.2675H10.001V40.1976H11.0004V39.2675Z" fill="#4476F3"/>
<path d="M11.0004 38.3373H10.001V39.2675H11.0004V38.3373Z" fill="#4476F3"/>
<path d="M11.0004 37.4072H10.001V38.3374H11.0004V37.4072Z" fill="#4476F3"/>
<path d="M11.0004 27.1737H10.001V28.1039H11.0004V27.1737Z" fill="#4476F3"/>
<path d="M11.0004 26.2444H10.001V27.1745H11.0004V26.2444Z" fill="#4476F3"/>
<path d="M10.0008 42.0579H9.00049V42.9881H10.0008V42.0579Z" fill="#4476F3"/>
<path d="M10.0008 41.1286H9.00049V42.0588H10.0008V41.1286Z" fill="#4476F3"/>
<path d="M10.0008 40.1977H9.00049V41.1278H10.0008V40.1977Z" fill="#4476F3"/>
<path d="M10.0008 39.2675H9.00049V40.1976H10.0008V39.2675Z" fill="#4476F3"/>
<path d="M10.0008 38.3373H9.00049V39.2675H10.0008V38.3373Z" fill="#4476F3"/>
<path d="M10.0008 28.1047H9.00049V29.0349H10.0008V28.1047Z" fill="#4476F3"/>
<path d="M10.0008 27.1737H9.00049V28.1039H10.0008V27.1737Z" fill="#4476F3"/>
<path d="M9.00053 41.1286H8.00024V42.0588H9.00053V41.1286Z" fill="#4476F3"/>
<path d="M9.00053 40.1977H8.00024V41.1278H9.00053V40.1977Z" fill="#4476F3"/>
<path d="M9.00053 39.2675H8.00024V40.1976H9.00053V39.2675Z" fill="#4476F3"/>
<path d="M9.00053 38.3373H8.00024V39.2675H9.00053V38.3373Z" fill="#4476F3"/>
<path d="M9.00053 29.0349H8.00024V29.9651H9.00053V29.0349Z" fill="#4476F3"/>
<path d="M8.00029 40.1977H7V41.1278H8.00029V40.1977Z" fill="#4476F3"/>
<path d="M8.00029 39.2675H7V40.1976H8.00029V39.2675Z" fill="#4476F3"/>
</g>
<g clip-path="url(#clip1_4_2318)">
<path d="M35.9999 25.3143H36.9993V26.2444H35.9999V25.3143Z" fill="#F37441"/>
<path d="M40.9995 20.6627H41.9998V21.5928H40.9995V20.6627Z" fill="#F37441"/>
<path d="M30 27.1737H31.0002V28.1039H30V27.1737Z" fill="#4476F3"/>
<path d="M31.0004 28.1047H31.9998V29.0349H31.0004V28.1047Z" fill="#4476F3"/>
<path d="M31.0004 27.1737H31.9998V28.1039H31.0004V27.1737Z" fill="#4476F3"/>
<path d="M31.9997 28.1047H33V29.0349H31.9997V28.1047Z" fill="#4476F3"/>
<path d="M31.9997 27.1737H33V28.1039H31.9997V27.1737Z" fill="#4476F3"/>
<path d="M32.999 42.0579H33.9993V42.9881H32.999V42.0579Z" fill="#4476F3"/>
<path d="M32.999 28.1047H33.9993V29.0349H32.999V28.1047Z" fill="#4476F3"/>
<path d="M32.999 27.1737H33.9993V28.1039H32.999V27.1737Z" fill="#4476F3"/>
<path d="M33.9995 42.0579H34.9998V42.9881H33.9995V42.0579Z" fill="#4476F3"/>
<path d="M33.9995 41.1286H34.9998V42.0588H33.9995V41.1286Z" fill="#4476F3"/>
<path d="M33.9995 28.1047H34.9998V29.0349H33.9995V28.1047Z" fill="#4476F3"/>
<path d="M33.9995 27.1737H34.9998V28.1039H33.9995V27.1737Z" fill="#4476F3"/>
<path d="M34.9997 42.0579H36V42.9881H34.9997V42.0579Z" fill="#4476F3"/>
<path d="M34.9997 41.1286H36V42.0588H34.9997V41.1286Z" fill="#4476F3"/>
<path d="M34.9997 40.1977H36V41.1278H34.9997V40.1977Z" fill="#4476F3"/>
<path d="M34.9997 39.2675H36V40.1976H34.9997V39.2675Z" fill="#4476F3"/>
<path d="M34.9997 38.3373H36V39.2675H34.9997V38.3373Z" fill="#4476F3"/>
<path d="M34.9997 37.4072H36V38.3374H34.9997V37.4072Z" fill="#4476F3"/>
<path d="M34.9997 36.477H36V37.4071H34.9997V36.477Z" fill="#4476F3"/>
<path d="M34.9997 35.5461H36V36.4762H34.9997V35.5461Z" fill="#4476F3"/>
<path d="M34.9997 28.1047H36V29.0349H34.9997V28.1047Z" fill="#4476F3"/>
<path d="M34.9997 27.1737H36V28.1039H34.9997V27.1737Z" fill="#4476F3"/>
<path d="M35.9999 42.0579H36.9993V42.9881H35.9999V42.0579Z" fill="#4476F3"/>
<path d="M35.9999 41.1286H36.9993V42.0588H35.9999V41.1286Z" fill="#4476F3"/>
<path d="M35.9999 40.1977H36.9993V41.1278H35.9999V40.1977Z" fill="#4476F3"/>
<path d="M35.9999 39.2675H36.9993V40.1976H35.9999V39.2675Z" fill="#4476F3"/>
<path d="M35.9999 38.3373H36.9993V39.2675H35.9999V38.3373Z" fill="#4476F3"/>
<path d="M35.9999 37.4072H36.9993V38.3374H35.9999V37.4072Z" fill="#4476F3"/>
<path d="M35.9999 36.477H36.9993V37.4071H35.9999V36.477Z" fill="#4476F3"/>
<path d="M35.9999 35.5461H36.9993V36.4762H35.9999V35.5461Z" fill="#4476F3"/>
<path d="M35.9999 34.6158H36.9993V35.546H35.9999V34.6158Z" fill="#4476F3"/>
<path d="M35.9999 33.6865H36.9993V34.6167H35.9999V33.6865Z" fill="#4476F3"/>
<path d="M35.9999 32.7564H36.9993V33.6866H35.9999V32.7564Z" fill="#F37441"/>
<path d="M35.9999 31.8254H36.9993V32.7555H35.9999V31.8254Z" fill="#F37441"/>
<path d="M35.9999 30.8953H36.9993V31.8254H35.9999V30.8953Z" fill="#F37441"/>
<path d="M35.9999 29.9651H36.9993V30.8952H35.9999V29.9651Z" fill="#F37441"/>
<path d="M35.9999 29.0349H36.9993V29.9651H35.9999V29.0349Z" fill="#F37441"/>
<path d="M35.9999 28.1047H36.9993V29.0349H35.9999V28.1047Z" fill="#4476F3"/>
<path d="M35.9999 27.1737H36.9993V28.1039H35.9999V27.1737Z" fill="#4476F3"/>
<path d="M35.9999 26.2444H36.9993V27.1745H35.9999V26.2444Z" fill="#4476F3"/>
<path d="M35.9999 24.3842H36.9993V25.3143H35.9999V24.3842Z" fill="#F37441"/>
<path d="M35.9999 23.4531H36.9993V24.3833H35.9999V23.4531Z" fill="#F37441"/>
<path d="M35.9999 22.523H36.9993V23.4532H35.9999V22.523Z" fill="#F37441"/>
<path d="M35.9999 21.5928H36.9993V22.5229H35.9999V21.5928Z" fill="#F37441"/>
<path d="M35.9999 20.6627H36.9993V21.5928H35.9999V20.6627Z" fill="#F37441"/>
<path d="M35.9999 19.7325H36.9993V20.6627H35.9999V19.7325Z" fill="#F37441"/>
<path d="M35.9999 18.8023H36.9993V19.7325H35.9999V18.8023Z" fill="#F37441"/>
<path d="M36.9992 41.1286H37.9995V42.0588H36.9992V41.1286Z" fill="#4476F3"/>
<path d="M36.9992 40.1977H37.9995V41.1278H36.9992V40.1977Z" fill="#4476F3"/>
<path d="M36.9992 39.2675H37.9995V40.1976H36.9992V39.2675Z" fill="#4476F3"/>
<path d="M36.9992 38.3373H37.9995V39.2675H36.9992V38.3373Z" fill="#4476F3"/>
<path d="M36.9992 37.4072H37.9995V38.3374H36.9992V37.4072Z" fill="#4476F3"/>
<path d="M36.9992 36.477H37.9995V37.4071H36.9992V36.477Z" fill="#4476F3"/>
<path d="M36.9992 35.5461H37.9995V36.4762H36.9992V35.5461Z" fill="#4476F3"/>
<path d="M36.9992 34.6158H37.9995V35.546H36.9992V34.6158Z" fill="#4476F3"/>
<path d="M36.9992 33.6865H37.9995V34.6167H36.9992V33.6865Z" fill="#4476F3"/>
<path d="M36.9992 32.7564H37.9995V33.6866H36.9992V32.7564Z" fill="#4476F3"/>
<path d="M36.9992 31.8254H37.9995V32.7555H36.9992V31.8254Z" fill="#F37441"/>
<path d="M36.9992 30.8953H37.9995V31.8254H36.9992V30.8953Z" fill="#F37441"/>
<path d="M36.9992 29.9651H37.9995V30.8952H36.9992V29.9651Z" fill="#F37441"/>
<path d="M36.9992 29.0349H37.9995V29.9651H36.9992V29.0349Z" fill="#F37441"/>
<path d="M36.9992 28.1047H37.9995V29.0349H36.9992V28.1047Z" fill="#4476F3"/>
<path d="M36.9992 27.1737H37.9995V28.1039H36.9992V27.1737Z" fill="#4476F3"/>
<path d="M36.9992 26.2444H37.9995V27.1745H36.9992V26.2444Z" fill="#4476F3"/>
<path d="M36.9992 25.3143H37.9995V26.2444H36.9992V25.3143Z" fill="#4476F3"/>
<path d="M36.9992 24.3842H37.9995V25.3143H36.9992V24.3842Z" fill="#4476F3"/>
<path d="M36.9992 23.4531H37.9995V24.3833H36.9992V23.4531Z" fill="#F37441"/>
<path d="M36.9992 22.523H37.9995V23.4532H36.9992V22.523Z" fill="#F37441"/>
<path d="M36.9992 21.5928H37.9995V22.5229H36.9992V21.5928Z" fill="#F37441"/>
<path d="M36.9992 20.6627H37.9995V21.5928H36.9992V20.6627Z" fill="#4476F3"/>
<path d="M36.9992 19.7325H37.9995V20.6627H36.9992V19.7325Z" fill="#4476F3"/>
<path d="M36.9992 18.8023H37.9995V19.7325H36.9992V18.8023Z" fill="#4476F3"/>
<path d="M36.9992 17.8722H37.9995V18.8023H36.9992V17.8722Z" fill="#F37441"/>
<path d="M37.9995 41.1286H38.9998V42.0588H37.9995V41.1286Z" fill="#F37441"/>
<path d="M37.9995 40.1977H38.9998V41.1278H37.9995V40.1977Z" fill="#4476F3"/>
<path d="M37.9995 39.2675H38.9998V40.1976H37.9995V39.2675Z" fill="#F37441"/>
<path d="M37.9995 38.3373H38.9998V39.2675H37.9995V38.3373Z" fill="#F37441"/>
<path d="M37.9995 37.4072H38.9998V38.3374H37.9995V37.4072Z" fill="#F37441"/>
<path d="M37.9995 36.477H38.9998V37.4071H37.9995V36.477Z" fill="#4476F3"/>
<path d="M37.9995 35.5461H38.9998V36.4762H37.9995V35.5461Z" fill="#4476F3"/>
<path d="M37.9995 34.6158H38.9998V35.546H37.9995V34.6158Z" fill="#4476F3"/>
<path d="M37.9995 33.6865H38.9998V34.6167H37.9995V33.6865Z" fill="#4476F3"/>
<path d="M37.9995 32.7564H38.9998V33.6866H37.9995V32.7564Z" fill="#4476F3"/>
<path d="M37.9995 31.8254H38.9998V32.7555H37.9995V31.8254Z" fill="#4476F3"/>
<path d="M37.9995 30.8953H38.9998V31.8254H37.9995V30.8953Z" fill="#F37441"/>
<path d="M37.9995 29.9651H38.9998V30.8952H37.9995V29.9651Z" fill="#F37441"/>
<path d="M37.9995 29.0349H38.9998V29.9651H37.9995V29.0349Z" fill="#F37441"/>
<path d="M37.9995 28.1047H38.9998V29.0349H37.9995V28.1047Z" fill="#F37441"/>
<path d="M37.9995 27.1737H38.9998V28.1039H37.9995V27.1737Z" fill="#4476F3"/>
<path d="M37.9995 26.2444H38.9998V27.1745H37.9995V26.2444Z" fill="#4476F3"/>
<path d="M37.9995 25.3143H38.9998V26.2444H37.9995V25.3143Z" fill="#4476F3"/>
<path d="M37.9995 24.3842H38.9998V25.3143H37.9995V24.3842Z" fill="#4476F3"/>
<path d="M37.9995 23.4531H38.9998V24.3833H37.9995V23.4531Z" fill="#4476F3"/>
<path d="M37.9995 22.523H38.9998V23.4532H37.9995V22.523Z" fill="#F37441"/>
<path d="M37.9995 21.5928H38.9998V22.5229H37.9995V21.5928Z" fill="#4476F3"/>
<path d="M37.9995 20.6627H38.9998V21.5928H37.9995V20.6627Z" fill="#4476F3"/>
<path d="M37.9995 19.7325H38.9998V20.6627H37.9995V19.7325Z" fill="#4476F3"/>
<path d="M37.9995 18.8023H38.9998V19.7325H37.9995V18.8023Z" fill="#4476F3"/>
<path d="M37.9995 17.8722H38.9998V18.8023H37.9995V17.8722Z" fill="#4476F3"/>
<path d="M37.9995 16.9421H38.9998V17.8722H37.9995V16.9421Z" fill="#F37441"/>
<path d="M39 42.0579H40.0002V42.9881H39V42.0579Z" fill="#F37441"/>
<path d="M39 41.1286H40.0002V42.0588H39V41.1286Z" fill="#F37441"/>
<path d="M39 40.1977H40.0002V41.1278H39V40.1977Z" fill="#F37441"/>
<path d="M39 39.2675H40.0002V40.1976H39V39.2675Z" fill="#F37441"/>
<path d="M39 38.3373H40.0002V39.2675H39V38.3373Z" fill="#F37441"/>
<path d="M39 37.4072H40.0002V38.3374H39V37.4072Z" fill="#F37441"/>
<path d="M39 36.477H40.0002V37.4071H39V36.477Z" fill="#F37441"/>
<path d="M39 35.5461H40.0002V36.4762H39V35.5461Z" fill="#F37441"/>
<path d="M39 34.6158H40.0002V35.546H39V34.6158Z" fill="#4476F3"/>
<path d="M39 33.6865H40.0002V34.6167H39V33.6865Z" fill="#4476F3"/>
<path d="M39 32.7564H40.0002V33.6866H39V32.7564Z" fill="#4476F3"/>
<path d="M39 31.8254H40.0002V32.7555H39V31.8254Z" fill="#4476F3"/>
<path d="M39 30.8953H40.0002V31.8254H39V30.8953Z" fill="#4476F3"/>
<path d="M39 29.9651H40.0002V30.8952H39V29.9651Z" fill="#F37441"/>
<path d="M39 29.0349H40.0002V29.9651H39V29.0349Z" fill="#F37441"/>
<path d="M39 28.1047H40.0002V29.0349H39V28.1047Z" fill="#4476F3"/>
<path d="M39 27.1737H40.0002V28.1039H39V27.1737Z" fill="#4476F3"/>
<path d="M39 26.2444H40.0002V27.1745H39V26.2444Z" fill="#4476F3"/>
<path d="M39 25.3143H40.0002V26.2444H39V25.3143Z" fill="#4476F3"/>
<path d="M39 24.3842H40.0002V25.3143H39V24.3842Z" fill="#4476F3"/>
<path d="M39 23.4531H40.0002V24.3833H39V23.4531Z" fill="#4476F3"/>
<path d="M39 22.523H40.0002V23.4532H39V22.523Z" fill="#4476F3"/>
<path d="M39 21.5928H40.0002V22.5229H39V21.5928Z" fill="#4476F3"/>
<path d="M39 20.6627H40.0002V21.5928H39V20.6627Z" fill="#4476F3"/>
<path d="M39 19.7325H40.0002V20.6627H39V19.7325Z" fill="#4476F3"/>
<path d="M39 18.8023H40.0002V19.7325H39V18.8023Z" fill="#4476F3"/>
<path d="M39 17.8722H40.0002V18.8023H39V17.8722Z" fill="#4476F3"/>
<path d="M39 16.9421H40.0002V17.8722H39V16.9421Z" fill="#F37441"/>
<path d="M39 16.012H40.0002V16.9421H39V16.012Z" fill="#F37441"/>
<path d="M40.0001 42.988H40.9995V43.9182H40.0001V42.988Z" fill="#F37441"/>
<path d="M40.0001 42.0579H40.9995V42.9881H40.0001V42.0579Z" fill="#F37441"/>
<path d="M40.0001 41.1286H40.9995V42.0588H40.0001V41.1286Z" fill="#F37441"/>
<path d="M40.0001 40.1977H40.9995V41.1278H40.0001V40.1977Z" fill="#F37441"/>
<path d="M40.0001 39.2675H40.9995V40.1976H40.0001V39.2675Z" fill="#F37441"/>
<path d="M40.0001 38.3373H40.9995V39.2675H40.0001V38.3373Z" fill="#F37441"/>
<path d="M40.0001 37.4072H40.9995V38.3374H40.0001V37.4072Z" fill="#F37441"/>
<path d="M40.0001 36.477H40.9995V37.4071H40.0001V36.477Z" fill="#F37441"/>
<path d="M40.0001 35.5461H40.9995V36.4762H40.0001V35.5461Z" fill="#F37441"/>
<path d="M40.0001 34.6158H40.9995V35.546H40.0001V34.6158Z" fill="#F37441"/>
<path d="M40.0001 33.6865H40.9995V34.6167H40.0001V33.6865Z" fill="#4476F3"/>
<path d="M40.0001 32.7564H40.9995V33.6866H40.0001V32.7564Z" fill="#4476F3"/>
<path d="M40.0001 31.8254H40.9995V32.7555H40.0001V31.8254Z" fill="#4476F3"/>
<path d="M40.0001 30.8953H40.9995V31.8254H40.0001V30.8953Z" fill="#4476F3"/>
<path d="M40.0001 29.9651H40.9995V30.8952H40.0001V29.9651Z" fill="#4476F3"/>
<path d="M40.0001 29.0349H40.9995V29.9651H40.0001V29.0349Z" fill="#4476F3"/>
<path d="M40.0001 28.1047H40.9995V29.0349H40.0001V28.1047Z" fill="#4476F3"/>
<path d="M40.0001 27.1737H40.9995V28.1039H40.0001V27.1737Z" fill="#4476F3"/>
<path d="M40.0001 26.2444H40.9995V27.1745H40.0001V26.2444Z" fill="#4476F3"/>
<path d="M40.0001 25.3143H40.9995V26.2444H40.0001V25.3143Z" fill="#4476F3"/>
<path d="M40.0001 24.3842H40.9995V25.3143H40.0001V24.3842Z" fill="#4476F3"/>
<path d="M40.0001 23.4531H40.9995V24.3833H40.0001V23.4531Z" fill="#4476F3"/>
<path d="M40.0001 22.523H40.9995V23.4532H40.0001V22.523Z" fill="#4476F3"/>
<path d="M40.0001 21.5928H40.9995V22.5229H40.0001V21.5928Z" fill="#4476F3"/>
<path d="M40.0001 20.6627H40.9995V21.5928H40.0001V20.6627Z" fill="#4476F3"/>
<path d="M40.0001 19.7325H40.9995V20.6627H40.0001V19.7325Z" fill="#4476F3"/>
<path d="M40.0001 18.8023H40.9995V19.7325H40.0001V18.8023Z" fill="#4476F3"/>
<path d="M40.0001 17.8722H40.9995V18.8023H40.0001V17.8722Z" fill="#4476F3"/>
<path d="M40.0001 16.9421H40.9995V17.8722H40.0001V16.9421Z" fill="#F37441"/>
<path d="M40.0001 16.012H40.9995V16.9421H40.0001V16.012Z" fill="#F37441"/>
<path d="M40.0001 15.0809H40.9995V16.0111H40.0001V15.0809Z" fill="#F37441"/>
<path d="M40.9995 43.9183H41.9998V44.8484H40.9995V43.9183Z" fill="#F37441"/>
<path d="M40.9995 42.988H41.9998V43.9182H40.9995V42.988Z" fill="#F37441"/>
<path d="M40.9995 42.0579H41.9998V42.9881H40.9995V42.0579Z" fill="#F37441"/>
<path d="M40.9995 41.1286H41.9998V42.0588H40.9995V41.1286Z" fill="#F37441"/>
<path d="M40.9995 40.1977H41.9998V41.1278H40.9995V40.1977Z" fill="#F37441"/>
<path d="M40.9995 39.2675H41.9998V40.1976H40.9995V39.2675Z" fill="#F37441"/>
<path d="M40.9995 38.3373H41.9998V39.2675H40.9995V38.3373Z" fill="#F37441"/>
<path d="M40.9995 37.4072H41.9998V38.3374H40.9995V37.4072Z" fill="#F37441"/>
<path d="M40.9995 36.477H41.9998V37.4071H40.9995V36.477Z" fill="#F37441"/>
<path d="M40.9995 35.5461H41.9998V36.4762H40.9995V35.5461Z" fill="#F37441"/>
<path d="M40.9995 34.6158H41.9998V35.546H40.9995V34.6158Z" fill="#F37441"/>
<path d="M40.9995 33.6865H41.9998V34.6167H40.9995V33.6865Z" fill="#4476F3"/>
<path d="M40.9995 32.7564H41.9998V33.6866H40.9995V32.7564Z" fill="#4476F3"/>
<path d="M40.9995 31.8254H41.9998V32.7555H40.9995V31.8254Z" fill="#4476F3"/>
<path d="M40.9995 30.8953H41.9998V31.8254H40.9995V30.8953Z" fill="#4476F3"/>
<path d="M40.9995 29.9651H41.9998V30.8952H40.9995V29.9651Z" fill="#4476F3"/>
<path d="M40.9995 29.0349H41.9998V29.9651H40.9995V29.0349Z" fill="#4476F3"/>
<path d="M40.9995 28.1047H41.9998V29.0349H40.9995V28.1047Z" fill="#4476F3"/>
<path d="M40.9995 27.1737H41.9998V28.1039H40.9995V27.1737Z" fill="#4476F3"/>
<path d="M40.9995 26.2444H41.9998V27.1745H40.9995V26.2444Z" fill="#4476F3"/>
<path d="M40.9995 25.3143H41.9998V26.2444H40.9995V25.3143Z" fill="#4476F3"/>
<path d="M40.9995 24.3842H41.9998V25.3143H40.9995V24.3842Z" fill="#4476F3"/>
<path d="M40.9995 23.4531H41.9998V24.3833H40.9995V23.4531Z" fill="#4476F3"/>
<path d="M40.9995 22.523H41.9998V23.4532H40.9995V22.523Z" fill="#4476F3"/>
<path d="M40.9995 21.5928H41.9998V22.5229H40.9995V21.5928Z" fill="#4476F3"/>
<path d="M40.9995 19.7325H41.9998V20.6627H40.9995V19.7325Z" fill="#4476F3"/>
<path d="M40.9995 18.8023H41.9998V19.7325H40.9995V18.8023Z" fill="#4476F3"/>
<path d="M40.9995 17.8722H41.9998V18.8023H40.9995V17.8722Z" fill="#F37441"/>
<path d="M40.9995 16.9421H41.9998V17.8722H40.9995V16.9421Z" fill="#F37441"/>
<path d="M40.9995 16.012H41.9998V16.9421H40.9995V16.012Z" fill="#F37441"/>
<path d="M40.9995 15.0809H41.9998V16.0111H40.9995V15.0809Z" fill="#F37441"/>
<path d="M40.9995 14.1507H41.9998V15.0808H40.9995V14.1507Z" fill="#F37441"/>
<path d="M42 44.8493H43.0002V45.7795H42V44.8493Z" fill="#F37441"/>
<path d="M42 43.9183H43.0002V44.8484H42V43.9183Z" fill="#F37441"/>
<path d="M42 42.988H43.0002V43.9182H42V42.988Z" fill="#F37441"/>
<path d="M42 42.0579H43.0002V42.9881H42V42.0579Z" fill="#F37441"/>
<path d="M42 41.1286H43.0002V42.0588H42V41.1286Z" fill="#F37441"/>
<path d="M42 40.1977H43.0002V41.1278H42V40.1977Z" fill="#F37441"/>
<path d="M42 39.2675H43.0002V40.1976H42V39.2675Z" fill="#F37441"/>
<path d="M42 38.3373H43.0002V39.2675H42V38.3373Z" fill="#F37441"/>
<path d="M42 37.4072H43.0002V38.3374H42V37.4072Z" fill="#F37441"/>
<path d="M42 36.477H43.0002V37.4071H42V36.477Z" fill="#F37441"/>
<path d="M42 35.5461H43.0002V36.4762H42V35.5461Z" fill="#F37441"/>
<path d="M42 34.6158H43.0002V35.546H42V34.6158Z" fill="#F37441"/>
<path d="M42 33.6865H43.0002V34.6167H42V33.6865Z" fill="#F37441"/>
<path d="M42 32.7564H43.0002V33.6866H42V32.7564Z" fill="#F37441"/>
<path d="M42 31.8254H43.0002V32.7555H42V31.8254Z" fill="#F37441"/>
<path d="M42 30.8953H43.0002V31.8254H42V30.8953Z" fill="#F37441"/>
<path d="M42 29.9651H43.0002V30.8952H42V29.9651Z" fill="#F37441"/>
<path d="M42 29.0349H43.0002V29.9651H42V29.0349Z" fill="#F37441"/>
<path d="M42 28.1047H43.0002V29.0349H42V28.1047Z" fill="#F37441"/>
<path d="M42 27.1737H43.0002V28.1039H42V27.1737Z" fill="#F37441"/>
<path d="M42 26.2444H43.0002V27.1745H42V26.2444Z" fill="#F37441"/>
<path d="M42 25.3143H43.0002V26.2444H42V25.3143Z" fill="#F37441"/>
<path d="M42 24.3842H43.0002V25.3143H42V24.3842Z" fill="#F37441"/>
<path d="M42 23.4531H43.0002V24.3833H42V23.4531Z" fill="#F37441"/>
<path d="M42 22.523H43.0002V23.4532H42V22.523Z" fill="#F37441"/>
<path d="M42 21.5928H43.0002V22.5229H42V21.5928Z" fill="#F37441"/>
<path d="M42 20.6627H43.0002V21.5928H42V20.6627Z" fill="#F37441"/>
<path d="M42 19.7325H43.0002V20.6627H42V19.7325Z" fill="#F37441"/>
<path d="M42 18.8023H43.0002V19.7325H42V18.8023Z" fill="#F37441"/>
<path d="M42 17.8722H43.0002V18.8023H42V17.8722Z" fill="#F37441"/>
<path d="M42 16.9421H43.0002V17.8722H42V16.9421Z" fill="#F37441"/>
<path d="M42 16.012H43.0002V16.9421H42V16.012Z" fill="#F37441"/>
<path d="M42 15.0809H43.0002V16.0111H42V15.0809Z" fill="#F37441"/>
<path d="M42 14.1507H43.0002V15.0808H42V14.1507Z" fill="#F37441"/>
<path d="M42 13.2206H43.0002V14.1507H42V13.2206Z" fill="#F37441"/>
<path d="M43.0002 45.7794H44.0005V46.7096H43.0002V45.7794Z" fill="#F37441"/>
<path d="M43.0002 44.8493H44.0005V45.7795H43.0002V44.8493Z" fill="#F37441"/>
<path d="M43.0002 43.9183H44.0005V44.8484H43.0002V43.9183Z" fill="#F37441"/>
<path d="M43.0002 42.988H44.0005V43.9182H43.0002V42.988Z" fill="#F37441"/>
<path d="M43.0002 42.0579H44.0005V42.9881H43.0002V42.0579Z" fill="#F37441"/>
<path d="M43.0002 41.1286H44.0005V42.0588H43.0002V41.1286Z" fill="#F37441"/>
<path d="M43.0002 40.1977H44.0005V41.1278H43.0002V40.1977Z" fill="#F37441"/>
<path d="M43.0002 39.2675H44.0005V40.1976H43.0002V39.2675Z" fill="#F37441"/>
<path d="M43.0002 38.3373H44.0005V39.2675H43.0002V38.3373Z" fill="#F37441"/>
<path d="M43.0002 37.4072H44.0005V38.3374H43.0002V37.4072Z" fill="#F37441"/>
<path d="M43.0002 36.477H44.0005V37.4071H43.0002V36.477Z" fill="#F37441"/>
<path d="M43.0002 35.5461H44.0005V36.4762H43.0002V35.5461Z" fill="#F37441"/>
<path d="M43.0002 34.6158H44.0005V35.546H43.0002V34.6158Z" fill="#F37441"/>
<path d="M43.0002 33.6865H44.0005V34.6167H43.0002V33.6865Z" fill="#F37441"/>
<path d="M43.0002 32.7564H44.0005V33.6866H43.0002V32.7564Z" fill="#F37441"/>
<path d="M43.0002 31.8254H44.0005V32.7555H43.0002V31.8254Z" fill="#F37441"/>
<path d="M43.0002 30.8953H44.0005V31.8254H43.0002V30.8953Z" fill="#F37441"/>
<path d="M43.0002 29.9651H44.0005V30.8952H43.0002V29.9651Z" fill="#F37441"/>
<path d="M43.0002 29.0349H44.0005V29.9651H43.0002V29.0349Z" fill="#F37441"/>
<path d="M43.0002 28.1047H44.0005V29.0349H43.0002V28.1047Z" fill="#F37441"/>
<path d="M43.0002 27.1737H44.0005V28.1039H43.0002V27.1737Z" fill="#F37441"/>
<path d="M43.0002 26.2444H44.0005V27.1745H43.0002V26.2444Z" fill="#F37441"/>
<path d="M43.0002 25.3143H44.0005V26.2444H43.0002V25.3143Z" fill="#F37441"/>
<path d="M43.0002 24.3842H44.0005V25.3143H43.0002V24.3842Z" fill="#F37441"/>
<path d="M43.0002 23.4531H44.0005V24.3833H43.0002V23.4531Z" fill="#F37441"/>
<path d="M43.0002 22.523H44.0005V23.4532H43.0002V22.523Z" fill="#F37441"/>
<path d="M43.0002 21.5928H44.0005V22.5229H43.0002V21.5928Z" fill="#F37441"/>
<path d="M43.0002 20.6627H44.0005V21.5928H43.0002V20.6627Z" fill="#F37441"/>
<path d="M43.0002 19.7325H44.0005V20.6627H43.0002V19.7325Z" fill="#F37441"/>
<path d="M43.0002 18.8023H44.0005V19.7325H43.0002V18.8023Z" fill="#F37441"/>
<path d="M43.0002 17.8722H44.0005V18.8023H43.0002V17.8722Z" fill="#F37441"/>
<path d="M43.0002 16.9421H44.0005V17.8722H43.0002V16.9421Z" fill="#F37441"/>
<path d="M43.0002 16.012H44.0005V16.9421H43.0002V16.012Z" fill="#F37441"/>
<path d="M43.0002 15.0809H44.0005V16.0111H43.0002V15.0809Z" fill="#F37441"/>
<path d="M43.0002 14.1507H44.0005V15.0808H43.0002V14.1507Z" fill="#F37441"/>
<path d="M43.0002 13.2206H44.0005V14.1507H43.0002V13.2206Z" fill="#F37441"/>
<path d="M43.0002 12.2914H44.0005V13.2215H43.0002V12.2914Z" fill="#F37441"/>
<path d="M44.0004 46.7095H44.9998V47.6397H44.0004V46.7095Z" fill="#F37441"/>
<path d="M44.0004 45.7794H44.9998V46.7096H44.0004V45.7794Z" fill="#F37441"/>
<path d="M44.0004 44.8493H44.9998V45.7795H44.0004V44.8493Z" fill="#F37441"/>
<path d="M44.0004 43.9183H44.9998V44.8484H44.0004V43.9183Z" fill="#F37441"/>
<path d="M44.0004 42.988H44.9998V43.9182H44.0004V42.988Z" fill="#F37441"/>
<path d="M44.0004 42.0579H44.9998V42.9881H44.0004V42.0579Z" fill="#F37441"/>
<path d="M44.0004 41.1286H44.9998V42.0588H44.0004V41.1286Z" fill="#F37441"/>
<path d="M44.0004 40.1977H44.9998V41.1278H44.0004V40.1977Z" fill="#F37441"/>
<path d="M44.0004 39.2675H44.9998V40.1976H44.0004V39.2675Z" fill="#F37441"/>
<path d="M44.0004 38.3373H44.9998V39.2675H44.0004V38.3373Z" fill="#F37441"/>
<path d="M44.0004 37.4072H44.9998V38.3374H44.0004V37.4072Z" fill="#F37441"/>
<path d="M44.0004 36.477H44.9998V37.4071H44.0004V36.477Z" fill="#F37441"/>
<path d="M44.0004 35.5461H44.9998V36.4762H44.0004V35.5461Z" fill="#F37441"/>
<path d="M44.0004 34.6158H44.9998V35.546H44.0004V34.6158Z" fill="#F37441"/>
<path d="M44.0004 33.6865H44.9998V34.6167H44.0004V33.6865Z" fill="#F37441"/>
<path d="M44.0004 32.7564H44.9998V33.6866H44.0004V32.7564Z" fill="#F37441"/>
<path d="M44.0004 31.8254H44.9998V32.7555H44.0004V31.8254Z" fill="#F37441"/>
<path d="M44.0004 30.8953H44.9998V31.8254H44.0004V30.8953Z" fill="#F37441"/>
<path d="M44.0004 29.9651H44.9998V30.8952H44.0004V29.9651Z" fill="#F37441"/>
<path d="M44.0004 29.0349H44.9998V29.9651H44.0004V29.0349Z" fill="#F37441"/>
<path d="M44.0004 28.1047H44.9998V29.0349H44.0004V28.1047Z" fill="#F37441"/>
<path d="M44.0004 27.1737H44.9998V28.1039H44.0004V27.1737Z" fill="#F37441"/>
<path d="M44.0004 26.2444H44.9998V27.1745H44.0004V26.2444Z" fill="#F37441"/>
<path d="M44.0004 25.3143H44.9998V26.2444H44.0004V25.3143Z" fill="#F37441"/>
<path d="M44.0004 24.3842H44.9998V25.3143H44.0004V24.3842Z" fill="#F37441"/>
<path d="M44.0004 23.4531H44.9998V24.3833H44.0004V23.4531Z" fill="#F37441"/>
<path d="M44.0004 22.523H44.9998V23.4532H44.0004V22.523Z" fill="#F37441"/>
<path d="M44.0004 21.5928H44.9998V22.5229H44.0004V21.5928Z" fill="#F37441"/>
<path d="M44.0004 20.6627H44.9998V21.5928H44.0004V20.6627Z" fill="#F37441"/>
<path d="M44.0004 19.7325H44.9998V20.6627H44.0004V19.7325Z" fill="#F37441"/>
<path d="M44.0004 18.8023H44.9998V19.7325H44.0004V18.8023Z" fill="#F37441"/>
<path d="M44.0004 17.8722H44.9998V18.8023H44.0004V17.8722Z" fill="#F37441"/>
<path d="M44.0004 16.9421H44.9998V17.8722H44.0004V16.9421Z" fill="#F37441"/>
<path d="M44.0004 16.012H44.9998V16.9421H44.0004V16.012Z" fill="#F37441"/>
<path d="M44.0004 15.0809H44.9998V16.0111H44.0004V15.0809Z" fill="#F37441"/>
<path d="M44.0004 14.1507H44.9998V15.0808H44.0004V14.1507Z" fill="#F37441"/>
<path d="M44.0004 13.2206H44.9998V14.1507H44.0004V13.2206Z" fill="#F37441"/>
<path d="M44.0004 12.2914H44.9998V13.2215H44.0004V12.2914Z" fill="#F37441"/>
<path d="M44.0004 11.3604H44.9998V12.2905H44.0004V11.3604Z" fill="#F37441"/>
<path d="M44.9997 47.6396H46V48.5698H44.9997V47.6396Z" fill="#F37441"/>
<path d="M44.9997 46.7095H46V47.6397H44.9997V46.7095Z" fill="#F37441"/>
<path d="M44.9997 45.7794H46V46.7096H44.9997V45.7794Z" fill="#F37441"/>
<path d="M44.9997 44.8493H46V45.7795H44.9997V44.8493Z" fill="#F37441"/>
<path d="M44.9997 43.9183H46V44.8484H44.9997V43.9183Z" fill="#F37441"/>
<path d="M44.9997 42.988H46V43.9182H44.9997V42.988Z" fill="#F37441"/>
<path d="M44.9997 42.0579H46V42.9881H44.9997V42.0579Z" fill="#F37441"/>
<path d="M44.9997 41.1286H46V42.0588H44.9997V41.1286Z" fill="#F37441"/>
<path d="M44.9997 40.1977H46V41.1278H44.9997V40.1977Z" fill="#F37441"/>
<path d="M44.9997 39.2675H46V40.1976H44.9997V39.2675Z" fill="#F37441"/>
<path d="M44.9997 38.3373H46V39.2675H44.9997V38.3373Z" fill="#F37441"/>
<path d="M44.9997 37.4072H46V38.3374H44.9997V37.4072Z" fill="#F37441"/>
<path d="M44.9997 36.477H46V37.4071H44.9997V36.477Z" fill="#F37441"/>
<path d="M44.9997 35.5461H46V36.4762H44.9997V35.5461Z" fill="#F37441"/>
<path d="M44.9997 34.6158H46V35.546H44.9997V34.6158Z" fill="#F37441"/>
<path d="M44.9997 33.6865H46V34.6167H44.9997V33.6865Z" fill="#F37441"/>
<path d="M44.9997 32.7564H46V33.6866H44.9997V32.7564Z" fill="#F37441"/>
<path d="M44.9997 31.8254H46V32.7555H44.9997V31.8254Z" fill="#F37441"/>
<path d="M44.9997 30.8953H46V31.8254H44.9997V30.8953Z" fill="#F37441"/>
<path d="M44.9997 29.9651H46V30.8952H44.9997V29.9651Z" fill="#F37441"/>
<path d="M44.9997 29.0349H46V29.9651H44.9997V29.0349Z" fill="#F37441"/>
<path d="M44.9997 28.1047H46V29.0349H44.9997V28.1047Z" fill="#F37441"/>
<path d="M44.9997 27.1737H46V28.1039H44.9997V27.1737Z" fill="#F37441"/>
<path d="M44.9997 26.2444H46V27.1745H44.9997V26.2444Z" fill="#F37441"/>
<path d="M44.9997 25.3143H46V26.2444H44.9997V25.3143Z" fill="#F37441"/>
<path d="M44.9997 24.3842H46V25.3143H44.9997V24.3842Z" fill="#F37441"/>
<path d="M44.9997 23.4531H46V24.3833H44.9997V23.4531Z" fill="#F37441"/>
<path d="M44.9997 22.523H46V23.4532H44.9997V22.523Z" fill="#F37441"/>
<path d="M44.9997 21.5928H46V22.5229H44.9997V21.5928Z" fill="#F37441"/>
<path d="M44.9997 20.6627H46V21.5928H44.9997V20.6627Z" fill="#F37441"/>
<path d="M44.9997 19.7325H46V20.6627H44.9997V19.7325Z" fill="#F37441"/>
<path d="M44.9997 18.8023H46V19.7325H44.9997V18.8023Z" fill="#F37441"/>
<path d="M44.9997 17.8722H46V18.8023H44.9997V17.8722Z" fill="#F37441"/>
<path d="M44.9997 16.9421H46V17.8722H44.9997V16.9421Z" fill="#F37441"/>
<path d="M44.9997 16.012H46V16.9421H44.9997V16.012Z" fill="#F37441"/>
<path d="M44.9997 15.0809H46V16.0111H44.9997V15.0809Z" fill="#F37441"/>
<path d="M44.9997 14.1507H46V15.0808H44.9997V14.1507Z" fill="#F37441"/>
<path d="M44.9997 13.2206H46V14.1507H44.9997V13.2206Z" fill="#F37441"/>
<path d="M44.9997 12.2914H46V13.2215H44.9997V12.2914Z" fill="#F37441"/>
<path d="M44.9997 11.3604H46V12.2905H44.9997V11.3604Z" fill="#F37441"/>
<path d="M44.9997 10.4301H46V11.3603H44.9997V10.4301Z" fill="#F37441"/>
<path d="M45.9992 48.5699H46.9995V49.5H45.9992V48.5699Z" fill="#F37441"/>
<path d="M45.9992 47.6396H46.9995V48.5698H45.9992V47.6396Z" fill="#F37441"/>
<path d="M45.9992 46.7095H46.9995V47.6397H45.9992V46.7095Z" fill="#F37441"/>
<path d="M45.9992 45.7794H46.9995V46.7096H45.9992V45.7794Z" fill="#F37441"/>
<path d="M45.9992 44.8493H46.9995V45.7795H45.9992V44.8493Z" fill="#F37441"/>
<path d="M45.9992 43.9183H46.9995V44.8484H45.9992V43.9183Z" fill="#F37441"/>
<path d="M45.9992 42.988H46.9995V43.9182H45.9992V42.988Z" fill="#F37441"/>
<path d="M45.9992 42.0579H46.9995V42.9881H45.9992V42.0579Z" fill="#F37441"/>
<path d="M45.9992 41.1286H46.9995V42.0588H45.9992V41.1286Z" fill="#F37441"/>
<path d="M45.9992 40.1977H46.9995V41.1278H45.9992V40.1977Z" fill="#F37441"/>
<path d="M45.9992 39.2675H46.9995V40.1976H45.9992V39.2675Z" fill="#F37441"/>
<path d="M45.9992 38.3373H46.9995V39.2675H45.9992V38.3373Z" fill="#F37441"/>
<path d="M45.9992 37.4072H46.9995V38.3374H45.9992V37.4072Z" fill="#F37441"/>
<path d="M45.9992 36.477H46.9995V37.4071H45.9992V36.477Z" fill="#F37441"/>
<path d="M45.9992 35.5461H46.9995V36.4762H45.9992V35.5461Z" fill="#F37441"/>
<path d="M45.9992 34.6158H46.9995V35.546H45.9992V34.6158Z" fill="#F37441"/>
<path d="M45.9992 33.6865H46.9995V34.6167H45.9992V33.6865Z" fill="#F37441"/>
<path d="M45.9992 32.7564H46.9995V33.6866H45.9992V32.7564Z" fill="#F37441"/>
<path d="M45.9992 31.8254H46.9995V32.7555H45.9992V31.8254Z" fill="#F37441"/>
<path d="M45.9992 30.8953H46.9995V31.8254H45.9992V30.8953Z" fill="#F37441"/>
<path d="M45.9992 29.9651H46.9995V30.8952H45.9992V29.9651Z" fill="#F37441"/>
<path d="M45.9992 29.0349H46.9995V29.9651H45.9992V29.0349Z" fill="#F37441"/>
<path d="M45.9992 28.1047H46.9995V29.0349H45.9992V28.1047Z" fill="#F37441"/>
<path d="M45.9992 27.1737H46.9995V28.1039H45.9992V27.1737Z" fill="#F37441"/>
<path d="M45.9992 26.2444H46.9995V27.1745H45.9992V26.2444Z" fill="#F37441"/>
<path d="M45.9992 25.3143H46.9995V26.2444H45.9992V25.3143Z" fill="#F37441"/>
<path d="M45.9992 24.3842H46.9995V25.3143H45.9992V24.3842Z" fill="#F37441"/>
<path d="M45.9992 23.4531H46.9995V24.3833H45.9992V23.4531Z" fill="#F37441"/>
<path d="M45.9992 22.523H46.9995V23.4532H45.9992V22.523Z" fill="#F37441"/>
<path d="M45.9992 21.5928H46.9995V22.5229H45.9992V21.5928Z" fill="#F37441"/>
<path d="M45.9992 20.6627H46.9995V21.5928H45.9992V20.6627Z" fill="#F37441"/>
<path d="M45.9992 19.7325H46.9995V20.6627H45.9992V19.7325Z" fill="#F37441"/>
<path d="M45.9992 18.8023H46.9995V19.7325H45.9992V18.8023Z" fill="#F37441"/>
<path d="M45.9992 17.8722H46.9995V18.8023H45.9992V17.8722Z" fill="#F37441"/>
<path d="M45.9992 16.9421H46.9995V17.8722H45.9992V16.9421Z" fill="#F37441"/>
<path d="M45.9992 16.012H46.9995V16.9421H45.9992V16.012Z" fill="#F37441"/>
<path d="M45.9992 15.0809H46.9995V16.0111H45.9992V15.0809Z" fill="#F37441"/>
<path d="M45.9992 14.1507H46.9995V15.0808H45.9992V14.1507Z" fill="#F37441"/>
<path d="M45.9992 13.2206H46.9995V14.1507H45.9992V13.2206Z" fill="#F37441"/>
<path d="M45.9992 12.2914H46.9995V13.2215H45.9992V12.2914Z" fill="#F37441"/>
<path d="M45.9992 11.3604H46.9995V12.2905H45.9992V11.3604Z" fill="#F37441"/>
<path d="M45.9992 10.4301H46.9995V11.3603H45.9992V10.4301Z" fill="#F37441"/>
<path d="M45.9992 9.5H46.9995V10.4302H45.9992V9.5Z" fill="#F37441"/>
<path d="M46.9995 39.2675H47.9998V40.1976H46.9995V39.2675Z" fill="#4476F3"/>
<path d="M46.9995 38.3373H47.9998V39.2675H46.9995V38.3373Z" fill="#4476F3"/>
<path d="M46.9995 37.4072H47.9998V38.3374H46.9995V37.4072Z" fill="#4476F3"/>
<path d="M46.9995 26.2444H47.9998V27.1745H46.9995V26.2444Z" fill="#4476F3"/>
<path d="M46.9995 25.3143H47.9998V26.2444H46.9995V25.3143Z" fill="#4476F3"/>
<path d="M47.9996 42.0579H48.999V42.9881H47.9996V42.0579Z" fill="#4476F3"/>
<path d="M47.9996 40.1977H48.999V41.1278H47.9996V40.1977Z" fill="#4476F3"/>
<path d="M47.9996 39.2675H48.999V40.1976H47.9996V39.2675Z" fill="#4476F3"/>
<path d="M47.9996 38.3373H48.999V39.2675H47.9996V38.3373Z" fill="#4476F3"/>
<path d="M47.9996 37.4072H48.999V38.3374H47.9996V37.4072Z" fill="#4476F3"/>
<path d="M47.9996 27.1737H48.999V28.1039H47.9996V27.1737Z" fill="#4476F3"/>
<path d="M47.9996 26.2444H48.999V27.1745H47.9996V26.2444Z" fill="#4476F3"/>
<path d="M48.9992 42.0579H49.9995V42.9881H48.9992V42.0579Z" fill="#4476F3"/>
<path d="M48.9992 41.1286H49.9995V42.0588H48.9992V41.1286Z" fill="#4476F3"/>
<path d="M48.9992 40.1977H49.9995V41.1278H48.9992V40.1977Z" fill="#4476F3"/>
<path d="M48.9992 39.2675H49.9995V40.1976H48.9992V39.2675Z" fill="#4476F3"/>
<path d="M48.9992 38.3373H49.9995V39.2675H48.9992V38.3373Z" fill="#4476F3"/>
<path d="M48.9992 28.1047H49.9995V29.0349H48.9992V28.1047Z" fill="#4476F3"/>
<path d="M48.9992 27.1737H49.9995V28.1039H48.9992V27.1737Z" fill="#4476F3"/>
<path d="M49.9995 41.1286H50.9998V42.0588H49.9995V41.1286Z" fill="#4476F3"/>
<path d="M49.9995 40.1977H50.9998V41.1278H49.9995V40.1977Z" fill="#4476F3"/>
<path d="M49.9995 39.2675H50.9998V40.1976H49.9995V39.2675Z" fill="#4476F3"/>
<path d="M49.9995 38.3373H50.9998V39.2675H49.9995V38.3373Z" fill="#4476F3"/>
<path d="M49.9995 29.0349H50.9998V29.9651H49.9995V29.0349Z" fill="#4476F3"/>
<path d="M50.9997 40.1977H52V41.1278H50.9997V40.1977Z" fill="#4476F3"/>
<path d="M50.9997 39.2675H52V40.1976H50.9997V39.2675Z" fill="#4476F3"/>
</g>
<defs>
<clipPath id="clip0_4_2318">
<rect width="22" height="40" fill="white" transform="translate(7 9.5)"/>
</clipPath>
<clipPath id="clip1_4_2318">
<rect width="22" height="40" fill="white" transform="matrix(-1 0 0 1 52 9.5)"/>
</clipPath>
</defs>
</svg>
